<svg xmlns="http://www.w3.org/2000/svg" xmlns:xlink="http://www.w3.org/1999/xlink" width="650" zoomAndPan="magnify" viewBox="0 0 487.5 225" height="300" preserveAspectRatio="xMidYMid meet" version="1.0"><defs><g/></defs><g fill="#d8c40d" fill-opacity="1"><g transform="translate(74.163393, 157.554992)"><g><path d="M 68.625 -38.8125 C 66.3125 -38.625 63.972656 -38.460938 61.609375 -38.328125 C 59.253906 -38.191406 56.832031 -38.03125 54.34375 -37.84375 C 54.34375 -36.644531 54.503906 -35.601562 54.828125 -34.71875 C 55.148438 -33.84375 55.40625 -32.941406 55.59375 -32.015625 C 56.332031 -29.335938 56.976562 -26.613281 57.53125 -23.84375 C 58.082031 -21.070312 58.359375 -18.300781 58.359375 -15.53125 C 58.546875 -7.113281 55.082031 -0.828125 47.96875 3.328125 C 38.351562 8.960938 28.09375 10.253906 17.1875 7.203125 C 13.863281 6.285156 10.976562 4.507812 8.53125 1.875 C 6.082031 -0.757812 4.320312 -3.878906 3.25 -7.484375 C 2.1875 -11.085938 1.984375 -14.691406 2.640625 -18.296875 C 3.460938 -22.453125 5.050781 -25.941406 7.40625 -28.765625 C 9.769531 -31.585938 12.847656 -33.875 16.640625 -35.625 C 18.765625 -36.738281 21.003906 -37.617188 23.359375 -38.265625 C 25.710938 -38.910156 28.046875 -39.460938 30.359375 -39.921875 C 32.117188 -40.203125 33.113281 -40.523438 33.34375 -40.890625 C 33.570312 -41.265625 33.410156 -42.238281 32.859375 -43.8125 C 31.378906 -48.425781 29.898438 -53.039062 28.421875 -57.65625 C 26.941406 -62.28125 25.738281 -66.953125 24.8125 -71.671875 C 24.164062 -75.179688 23.816406 -78.691406 23.765625 -82.203125 C 23.722656 -85.710938 24.257812 -89.175781 25.375 -92.59375 C 26.664062 -96.9375 28.71875 -100.539062 31.53125 -103.40625 C 34.351562 -106.28125 38.03125 -108.175781 42.5625 -109.09375 C 47.175781 -110.019531 51.675781 -109.375 56.0625 -107.15625 C 60.457031 -104.9375 63.625 -101.65625 65.5625 -97.3125 C 66.675781 -94.820312 67.507812 -92.234375 68.0625 -89.546875 C 68.613281 -86.867188 68.753906 -84.144531 68.484375 -81.375 C 68.390625 -79.988281 68.179688 -79.132812 67.859375 -78.8125 C 67.535156 -78.488281 66.679688 -78.1875 65.296875 -77.90625 C 64.367188 -77.8125 63.421875 -77.695312 62.453125 -77.5625 C 61.484375 -77.425781 60.488281 -77.265625 59.46875 -77.078125 C 57.894531 -76.890625 56.925781 -77.628906 56.5625 -79.296875 C 56.1875 -80.953125 55.8125 -82.566406 55.4375 -84.140625 C 55.070312 -85.710938 54.660156 -87.285156 54.203125 -88.859375 C 53.273438 -92.273438 51.796875 -95.601562 49.765625 -98.84375 C 49.210938 -99.675781 48.585938 -100.4375 47.890625 -101.125 C 47.203125 -101.820312 46.300781 -102.078125 45.1875 -101.890625 C 44.082031 -101.796875 43.25 -101.332031 42.6875 -100.5 C 42.132812 -99.664062 41.675781 -98.789062 41.3125 -97.875 C 40.195312 -94.820312 39.570312 -91.742188 39.4375 -88.640625 C 39.300781 -85.546875 39.460938 -82.429688 39.921875 -79.296875 C 40.296875 -77.265625 40.78125 -75.253906 41.375 -73.265625 C 41.976562 -71.273438 42.648438 -69.265625 43.390625 -67.234375 C 44.773438 -63.628906 46.113281 -60.023438 47.40625 -56.421875 C 48.695312 -52.816406 49.992188 -49.210938 51.296875 -45.609375 C 51.941406 -43.941406 52.472656 -42.96875 52.890625 -42.6875 C 53.304688 -42.414062 54.390625 -42.328125 56.140625 -42.421875 C 59.742188 -42.691406 63.367188 -42.96875 67.015625 -43.25 C 70.671875 -43.53125 74.300781 -44.085938 77.90625 -44.921875 C 78.363281 -45.003906 79.007812 -45.140625 79.84375 -45.328125 C 81.050781 -45.421875 81.742188 -44.820312 81.921875 -43.53125 C 82.109375 -42.238281 81.648438 -41.453125 80.546875 -41.171875 C 78.503906 -40.710938 76.515625 -40.226562 74.578125 -39.71875 C 72.640625 -39.207031 70.65625 -38.90625 68.625 -38.8125 Z M 32.859375 2.21875 C 35.628906 1.289062 37.660156 -0.28125 38.953125 -2.5 C 40.242188 -4.71875 40.890625 -7.8125 40.890625 -11.78125 C 40.617188 -15.195312 39.992188 -18.800781 39.015625 -22.59375 C 38.046875 -26.382812 37.007812 -30.175781 35.90625 -33.96875 C 35.53125 -35.445312 34.5625 -36 33 -35.625 C 30.78125 -35.257812 28.5625 -34.75 26.34375 -34.09375 C 24.125 -33.445312 22.039062 -32.476562 20.09375 -31.1875 C 16.769531 -29.15625 14.460938 -26.242188 13.171875 -22.453125 C 10.859375 -15.242188 11.921875 -8.59375 16.359375 -2.5 C 18.296875 0.1875 20.71875 1.921875 23.625 2.703125 C 26.539062 3.484375 29.617188 3.320312 32.859375 2.21875 Z M 32.859375 2.21875 "/></g></g></g><g fill="#d8c40d" fill-opacity="1"><g transform="translate(150.826114, 157.554992)"><g><path d="M -3.1875 -40.75 C -1.519531 -40.65625 0.140625 -40.425781 1.796875 -40.0625 C 3.460938 -39.695312 5.21875 -39.28125 7.0625 -38.8125 C 7.0625 -42.320312 7.0625 -45.691406 7.0625 -48.921875 C 7.0625 -52.160156 7.0625 -55.351562 7.0625 -58.5 C 6.976562 -64.601562 6.863281 -70.679688 6.71875 -76.734375 C 6.582031 -82.785156 6.46875 -88.8125 6.375 -94.8125 C 6.375 -97.125 6.441406 -99.410156 6.578125 -101.671875 C 6.722656 -103.941406 6.976562 -106.1875 7.34375 -108.40625 C 7.4375 -109.414062 7.710938 -110.242188 8.171875 -110.890625 C 8.640625 -111.546875 9.425781 -111.921875 10.53125 -112.015625 C 12.84375 -112.097656 15.175781 -112.117188 17.53125 -112.078125 C 19.894531 -112.035156 22.273438 -111.96875 24.671875 -111.875 C 26.429688 -111.78125 27.21875 -110.625 27.03125 -108.40625 C 26.84375 -104.613281 26.632812 -100.820312 26.40625 -97.03125 C 26.175781 -93.25 25.96875 -89.460938 25.78125 -85.671875 C 25.59375 -78.648438 25.40625 -71.648438 25.21875 -64.671875 C 25.039062 -57.691406 24.859375 -50.691406 24.671875 -43.671875 C 24.671875 -43.109375 24.691406 -42.523438 24.734375 -41.921875 C 24.785156 -41.328125 24.8125 -40.753906 24.8125 -40.203125 C 25.457031 -39.828125 25.988281 -39.820312 26.40625 -40.1875 C 26.820312 -40.5625 27.21875 -40.9375 27.59375 -41.3125 C 34.613281 -47.226562 40.664062 -53.953125 45.75 -61.484375 C 50.832031 -69.015625 54.757812 -77.445312 57.53125 -86.78125 C 58.632812 -90.570312 59.671875 -94.40625 60.640625 -98.28125 C 61.617188 -102.164062 62.613281 -106.003906 63.625 -109.796875 C 64.269531 -112.097656 64.820312 -113.410156 65.28125 -113.734375 C 65.75 -114.066406 67.046875 -114.1875 69.171875 -114.09375 C 71.203125 -113.90625 72.632812 -113.671875 73.46875 -113.390625 C 74.300781 -113.117188 74.765625 -112.492188 74.859375 -111.515625 C 74.953125 -110.546875 74.8125 -108.910156 74.4375 -106.609375 C 70.46875 -74.992188 56.375 -50.734375 32.15625 -33.828125 C 31.789062 -33.546875 31.398438 -33.289062 30.984375 -33.0625 C 30.566406 -32.832031 30.265625 -32.441406 30.078125 -31.890625 C 30.078125 -31.328125 30.398438 -31 31.046875 -30.90625 C 38.628906 -29.613281 46.046875 -29.519531 53.296875 -30.625 C 60.554688 -31.738281 67.601562 -34.332031 74.4375 -38.40625 C 76.101562 -39.414062 77.675781 -40.566406 79.15625 -41.859375 C 80.632812 -43.160156 82.113281 -44.503906 83.59375 -45.890625 C 84.050781 -46.160156 84.535156 -46.523438 85.046875 -46.984375 C 85.554688 -47.453125 86.085938 -47.269531 86.640625 -46.4375 C 87.003906 -45.789062 87.300781 -45.050781 87.53125 -44.21875 C 87.769531 -43.382812 87.519531 -42.550781 86.78125 -41.71875 C 85.113281 -39.59375 83.21875 -37.789062 81.09375 -36.3125 C 77.125 -33.445312 72.921875 -31.179688 68.484375 -29.515625 C 64.046875 -27.859375 59.46875 -26.707031 54.75 -26.0625 C 50.226562 -25.320312 45.722656 -24.953125 41.234375 -24.953125 C 36.753906 -24.953125 32.25 -25.460938 27.71875 -26.484375 C 26.425781 -26.753906 25.617188 -26.75 25.296875 -26.46875 C 24.972656 -26.195312 24.859375 -25.273438 24.953125 -23.703125 C 25.046875 -18.992188 25.019531 -14.304688 24.875 -9.640625 C 24.738281 -4.972656 24.765625 -0.328125 24.953125 4.296875 C 25.140625 7.066406 24.976562 8.726562 24.46875 9.28125 C 23.957031 9.84375 22.457031 10.210938 19.96875 10.390625 C 18.851562 10.390625 17.738281 10.410156 16.625 10.453125 C 15.519531 10.503906 14.414062 10.53125 13.3125 10.53125 C 12.019531 10.53125 11.1875 10.367188 10.8125 10.046875 C 10.445312 9.722656 10.171875 8.820312 9.984375 7.34375 C 9.703125 4.570312 9.421875 1.828125 9.140625 -0.890625 C 8.867188 -3.617188 8.6875 -6.375 8.59375 -9.15625 C 8.59375 -11.09375 8.519531 -13.007812 8.375 -14.90625 C 8.238281 -16.800781 8.128906 -18.671875 8.046875 -20.515625 C 7.953125 -22.546875 7.070312 -23.425781 5.40625 -23.15625 C 2.445312 -22.6875 -0.691406 -22.726562 -4.015625 -23.28125 C -5.585938 -23.5625 -7.160156 -23.957031 -8.734375 -24.46875 C -10.304688 -24.976562 -11.785156 -25.785156 -13.171875 -26.890625 C -15.109375 -28.460938 -16.097656 -30.195312 -16.140625 -32.09375 C -16.191406 -33.988281 -15.296875 -35.722656 -13.453125 -37.296875 C -11.972656 -38.679688 -10.351562 -39.601562 -8.59375 -40.0625 C -6.832031 -40.519531 -5.03125 -40.75 -3.1875 -40.75 Z M -4.984375 -29.9375 C -4.066406 -29.382812 -3.097656 -29.039062 -2.078125 -28.90625 C -1.054688 -28.769531 0.1875 -28.703125 1.65625 -28.703125 C 2.03125 -28.785156 2.5625 -28.875 3.25 -28.96875 C 3.945312 -29.0625 4.664062 -29.203125 5.40625 -29.390625 C 5.863281 -29.484375 6.347656 -29.617188 6.859375 -29.796875 C 7.367188 -29.984375 7.625 -30.492188 7.625 -31.328125 C 7.625 -31.972656 7.414062 -32.429688 7 -32.703125 C 6.582031 -32.984375 6.191406 -33.171875 5.828125 -33.265625 C 4.617188 -33.640625 3.457031 -34.035156 2.34375 -34.453125 C 1.238281 -34.867188 0.132812 -35.210938 -0.96875 -35.484375 C -1.800781 -35.671875 -2.863281 -35.71875 -4.15625 -35.625 C -5.445312 -35.4375 -6.234375 -34.601562 -6.515625 -33.125 C -6.703125 -32.382812 -6.609375 -31.757812 -6.234375 -31.25 C -5.867188 -30.75 -5.453125 -30.3125 -4.984375 -29.9375 Z M -4.984375 -29.9375 "/></g></g></g><g fill="#4e4e4e" fill-opacity="1"><g transform="translate(249.269681, 147.157688)"><g><path d="M 17.625 11.96875 C 16.550781 12.070312 15.742188 11.585938 15.203125 10.515625 C 15.097656 9.972656 15.015625 9.429688 14.953125 8.890625 C 14.898438 8.359375 14.875 7.820312 14.875 7.28125 C 14.875 6.738281 14.898438 6.195312 14.953125 5.65625 C 15.015625 5.125 15.097656 4.640625 15.203125 4.203125 L 16.65625 -2.59375 C 16.875 -3.238281 17.0625 -3.882812 17.21875 -4.53125 C 17.382812 -5.175781 17.359375 -5.875 17.140625 -6.625 C 16.390625 -7.164062 15.742188 -7.382812 15.203125 -7.28125 C 14.773438 -7.164062 14.394531 -7.132812 14.0625 -7.1875 C 13.738281 -7.25 13.414062 -7.332031 13.09375 -7.4375 C 10.289062 -8.195312 8.320312 -9.570312 7.1875 -11.5625 C 6.0625 -13.5625 6.09375 -15.960938 7.28125 -18.765625 C 8.351562 -21.347656 9.753906 -23.691406 11.484375 -25.796875 C 13.210938 -27.898438 15.15625 -29.8125 17.3125 -31.53125 L 20.375 -33.484375 C 21.5625 -34.335938 21.5625 -35.09375 20.375 -35.75 C 20.269531 -35.851562 20.132812 -35.929688 19.96875 -35.984375 C 19.8125 -36.035156 19.625 -36.117188 19.40625 -36.234375 C 19.1875 -36.234375 18.863281 -36.335938 18.4375 -36.546875 C 15.957031 -37.847656 14.363281 -39.359375 13.65625 -41.078125 C 12.957031 -42.804688 12.988281 -44.960938 13.75 -47.546875 C 14.820312 -50.671875 16.972656 -53.769531 20.203125 -56.84375 C 23.441406 -59.914062 26.679688 -62.101562 29.921875 -63.40625 C 31.429688 -64.050781 32.507812 -65.34375 33.15625 -67.28125 C 33.695312 -69.113281 34.265625 -70.863281 34.859375 -72.53125 C 35.453125 -74.207031 36.070312 -75.90625 36.71875 -77.625 C 36.925781 -78.488281 37.4375 -79.59375 38.25 -80.9375 C 39.0625 -82.289062 39.953125 -82.96875 40.921875 -82.96875 C 41.023438 -82.96875 41.128906 -82.941406 41.234375 -82.890625 C 41.347656 -82.835938 41.515625 -82.753906 41.734375 -82.640625 C 42.585938 -81.992188 42.691406 -80.863281 42.046875 -79.25 C 41.835938 -78.5 41.566406 -77.796875 41.234375 -77.140625 C 40.910156 -76.492188 40.585938 -75.847656 40.265625 -75.203125 C 39.941406 -74.453125 39.617188 -73.753906 39.296875 -73.109375 C 38.972656 -72.460938 38.707031 -71.757812 38.5 -71 C 38.382812 -70.675781 38.300781 -70.351562 38.25 -70.03125 C 38.195312 -69.707031 38.113281 -69.382812 38 -69.0625 C 37.894531 -68.625 37.785156 -68.242188 37.671875 -67.921875 C 37.566406 -67.597656 37.460938 -67.273438 37.359375 -66.953125 C 37.253906 -66.203125 37.578125 -65.664062 38.328125 -65.34375 C 38.546875 -65.226562 38.816406 -65.117188 39.140625 -65.015625 C 39.460938 -64.910156 39.785156 -64.800781 40.109375 -64.6875 C 40.328125 -64.582031 40.597656 -64.472656 40.921875 -64.359375 C 41.242188 -64.253906 41.515625 -64.148438 41.734375 -64.046875 C 42.703125 -63.617188 43.289062 -62.8125 43.5 -61.625 C 43.5 -61.082031 43.3125 -60.566406 42.9375 -60.078125 C 42.5625 -59.597656 42.101562 -59.359375 41.5625 -59.359375 C 41.351562 -59.359375 41.191406 -59.410156 41.078125 -59.515625 C 39.460938 -60.484375 38.007812 -60.96875 36.71875 -60.96875 C 34.988281 -60.96875 33.097656 -60.457031 31.046875 -59.4375 C 29.003906 -58.414062 27.066406 -57.148438 25.234375 -55.640625 C 23.398438 -54.128906 21.890625 -52.726562 20.703125 -51.4375 C 20.484375 -51 20.210938 -50.59375 19.890625 -50.21875 C 19.566406 -49.84375 19.296875 -49.4375 19.078125 -49 C 18.429688 -48.03125 18.054688 -47.171875 17.953125 -46.421875 C 16.867188 -43.179688 17.835938 -41.078125 20.859375 -40.109375 C 21.617188 -39.890625 22.398438 -39.671875 23.203125 -39.453125 C 24.015625 -39.242188 24.796875 -39.085938 25.546875 -38.984375 C 26.304688 -38.867188 27.0625 -38.726562 27.8125 -38.5625 C 28.570312 -38.40625 29.328125 -38.21875 30.078125 -38 C 31.703125 -37.675781 32.726562 -37.351562 33.15625 -37.03125 C 33.695312 -36.601562 33.859375 -36.117188 33.640625 -35.578125 C 33.421875 -34.710938 33.015625 -34.171875 32.421875 -33.953125 C 31.828125 -33.742188 31.15625 -33.53125 30.40625 -33.3125 C 26.957031 -32.238281 23.800781 -30.757812 20.9375 -28.875 C 18.082031 -26.988281 15.578125 -24.535156 13.421875 -21.515625 C 12.878906 -20.648438 12.363281 -19.8125 11.875 -19 C 11.394531 -18.195312 11.050781 -17.304688 10.84375 -16.328125 C 10.1875 -14.390625 10.882812 -12.9375 12.9375 -11.96875 C 13.90625 -11.539062 14.820312 -11.328125 15.6875 -11.328125 C 17.300781 -11.328125 19.347656 -11.835938 21.828125 -12.859375 C 24.304688 -13.878906 26.757812 -15.035156 29.1875 -16.328125 C 31.613281 -17.628906 33.421875 -18.765625 34.609375 -19.734375 C 35.472656 -20.378906 36.226562 -21.1875 36.875 -22.15625 C 37.519531 -23.125 38.164062 -24.09375 38.8125 -25.0625 C 39.132812 -25.5 39.617188 -25.71875 40.265625 -25.71875 C 40.703125 -25.71875 40.972656 -25.660156 41.078125 -25.546875 C 41.941406 -25.117188 42.320312 -24.367188 42.21875 -23.296875 C 41.894531 -21.785156 40.894531 -20.140625 39.21875 -18.359375 C 37.550781 -16.578125 35.691406 -15.007812 33.640625 -13.65625 C 31.585938 -12.3125 29.804688 -11.425781 28.296875 -11 C 25.929688 -10.238281 24.207031 -9.128906 23.125 -7.671875 C 22.050781 -6.222656 21.296875 -4.3125 20.859375 -1.9375 C 20.753906 -0.96875 20.566406 0 20.296875 0.96875 C 20.023438 1.9375 19.78125 2.90625 19.5625 3.875 C 19.03125 5.820312 18.867188 7.875 19.078125 10.03125 C 19.296875 11 18.8125 11.644531 17.625 11.96875 Z M 17.625 11.96875 "/></g></g></g><g fill="#0f9098" fill-opacity="1"><g transform="translate(300.512229, 167.605686)"><g><path d="M 137.234375 -22.078125 C 137.316406 -19.503906 135.195312 -16.757812 130.875 -13.84375 C 129.957031 -11.769531 128.253906 -9.941406 125.765625 -8.359375 C 121.691406 -5.691406 118.113281 -3.988281 115.03125 -3.25 C 103.800781 0.0820312 95.066406 2.304688 88.828125 3.421875 C 82.585938 4.546875 76.679688 4.984375 71.109375 4.734375 C 69.535156 4.566406 68.1875 4.523438 67.0625 4.609375 C 65.9375 4.691406 64.9375 4.835938 64.0625 5.046875 C 63.1875 5.253906 62.3125 5.566406 61.4375 5.984375 C 60.570312 6.398438 59.722656 6.941406 58.890625 7.609375 C 54.984375 10.441406 49.242188 11.398438 41.671875 10.484375 C 34.097656 9.566406 28.273438 7.15625 24.203125 3.25 C 21.546875 0.75 19.53125 -0.6875 18.15625 -1.0625 C 16.78125 -1.4375 15.09375 -1 13.09375 0.25 C 10.019531 2.082031 7.753906 1.875 6.296875 -0.375 C 4.847656 -2.625 5.160156 -5.410156 7.234375 -8.734375 C 8.316406 -10.734375 8.234375 -14.457031 6.984375 -19.90625 C 5.734375 -25.351562 5.648438 -28.570312 6.734375 -29.5625 C 7.816406 -30.5625 10.5625 -29.773438 14.96875 -27.203125 L 22.203125 -23.203125 L 28.703125 -29.8125 C 31.773438 -32.726562 37.050781 -38.65625 44.53125 -47.59375 C 52.019531 -56.539062 56.890625 -62.21875 59.140625 -64.625 L 65 -70.734375 L 64.125 -80.34375 C 63.625 -86.832031 62.585938 -91.535156 61.015625 -94.453125 C 58.597656 -98.941406 58.015625 -103.222656 59.265625 -107.296875 C 60.429688 -111.367188 63.675781 -116.191406 69 -121.765625 C 71.070312 -123.847656 72.816406 -125.285156 74.234375 -126.078125 C 75.648438 -126.867188 77.394531 -127.265625 79.46875 -127.265625 C 81.882812 -127.265625 84.941406 -126.390625 88.640625 -124.640625 C 92.347656 -122.890625 94.285156 -121.4375 94.453125 -120.28125 C 95.523438 -112.875 95.441406 -108.546875 94.203125 -107.296875 C 93.617188 -106.546875 92.453125 -103.300781 90.703125 -97.5625 C 88.867188 -92.238281 86.457031 -87.625 83.46875 -83.71875 C 80.800781 -79.8125 79.46875 -77.359375 79.46875 -76.359375 C 79.46875 -75.273438 78.804688 -74.023438 77.484375 -72.609375 C 76.066406 -70.953125 75.773438 -67.664062 76.609375 -62.75 C 81.515625 -37.71875 82.015625 -21.164062 78.109375 -13.09375 C 76.273438 -9.351562 75.773438 -7.191406 76.609375 -6.609375 C 77.273438 -6.109375 79.769531 -6.398438 84.09375 -7.484375 C 87.5 -8.316406 92.363281 -9.234375 98.6875 -10.234375 C 100.101562 -10.484375 101.578125 -10.878906 103.109375 -11.421875 C 104.648438 -11.960938 106.253906 -12.5625 107.921875 -13.21875 C 109.585938 -13.882812 111.039062 -14.425781 112.28125 -14.84375 C 113.863281 -15.257812 114.90625 -15.675781 115.40625 -16.09375 C 115.738281 -16.257812 116.050781 -16.488281 116.34375 -16.78125 C 116.632812 -17.070312 116.882812 -17.34375 117.09375 -17.59375 C 117.300781 -17.84375 117.570312 -18.113281 117.90625 -18.40625 C 118.238281 -18.695312 118.53125 -18.925781 118.78125 -19.09375 C 119.863281 -20.007812 121.859375 -20.960938 124.765625 -21.953125 C 127.671875 -22.953125 129.582031 -23.703125 130.5 -24.203125 C 131.414062 -24.703125 132.207031 -25.078125 132.875 -25.328125 C 133.539062 -25.578125 134.25 -25.722656 135 -25.765625 C 135.75 -25.804688 136.304688 -25.515625 136.671875 -24.890625 C 137.046875 -24.265625 137.234375 -23.328125 137.234375 -22.078125 Z M 61.515625 -12.359375 C 65.671875 -16.265625 68.207031 -19.796875 69.125 -22.953125 C 70.039062 -26.117188 70.207031 -31.734375 69.625 -39.796875 C 68.789062 -49.117188 67.875 -53.984375 66.875 -54.390625 C 66.039062 -54.640625 63.335938 -52.1875 58.765625 -47.03125 C 55.441406 -43.289062 50.367188 -37.675781 43.546875 -30.1875 C 37.804688 -24.28125 34.9375 -20.5 34.9375 -18.84375 C 34.9375 -17.59375 36.910156 -15.695312 40.859375 -13.15625 C 44.804688 -10.625 48.363281 -8.941406 51.53125 -8.109375 C 53.269531 -7.691406 54.765625 -7.753906 56.015625 -8.296875 C 57.265625 -8.835938 59.097656 -10.191406 61.515625 -12.359375 Z M 73.859375 -90.453125 C 74.859375 -90.867188 76.789062 -94.550781 79.65625 -101.5 C 82.53125 -108.445312 83.675781 -112.414062 83.09375 -113.40625 C 82.257812 -116.070312 80.222656 -115.988281 76.984375 -113.15625 C 74.734375 -111.332031 73.109375 -108.878906 72.109375 -105.796875 C 70.785156 -101.640625 70.742188 -97.234375 71.984375 -92.578125 C 72.648438 -91.160156 73.273438 -90.453125 73.859375 -90.453125 Z M 73.859375 -90.453125 "/></g></g></g><g fill="#0f9098" fill-opacity="1"><g transform="translate(423.980218, 167.605686)"><g/></g></g></svg>