<svg xmlns="http://www.w3.org/2000/svg" xmlns:xlink="http://www.w3.org/1999/xlink" width="1056" zoomAndPan="magnify" viewBox="0 0 792 107.999999" height="144" preserveAspectRatio="xMidYMid meet" version="1.0"><defs><g/></defs><g fill="#d8c40d" fill-opacity="1"><g transform="translate(2.118843, 80.078004)"><g><path d="M 39 -22.0625 C 37.6875 -21.957031 36.359375 -21.863281 35.015625 -21.78125 C 33.679688 -21.707031 32.304688 -21.617188 30.890625 -21.515625 C 30.890625 -20.828125 30.976562 -20.234375 31.15625 -19.734375 C 31.34375 -19.234375 31.488281 -18.722656 31.59375 -18.203125 C 32.019531 -16.679688 32.390625 -15.128906 32.703125 -13.546875 C 33.015625 -11.972656 33.171875 -10.398438 33.171875 -8.828125 C 33.273438 -4.046875 31.304688 -0.472656 27.265625 1.890625 C 21.796875 5.097656 15.960938 5.832031 9.765625 4.09375 C 7.878906 3.570312 6.238281 2.5625 4.84375 1.0625 C 3.457031 -0.4375 2.460938 -2.207031 1.859375 -4.25 C 1.253906 -6.300781 1.132812 -8.351562 1.5 -10.40625 C 1.96875 -12.769531 2.867188 -14.75 4.203125 -16.34375 C 5.546875 -17.945312 7.296875 -19.25 9.453125 -20.25 C 10.660156 -20.882812 11.929688 -21.382812 13.265625 -21.75 C 14.609375 -22.113281 15.9375 -22.425781 17.25 -22.6875 C 18.25 -22.851562 18.8125 -23.039062 18.9375 -23.25 C 19.070312 -23.457031 18.984375 -24.007812 18.671875 -24.90625 C 17.835938 -27.53125 17 -30.15625 16.15625 -32.78125 C 15.3125 -35.40625 14.628906 -38.054688 14.109375 -40.734375 C 13.734375 -42.734375 13.53125 -44.726562 13.5 -46.71875 C 13.476562 -48.71875 13.785156 -50.691406 14.421875 -52.640625 C 15.148438 -55.109375 16.316406 -57.15625 17.921875 -58.78125 C 19.523438 -60.40625 21.613281 -61.484375 24.1875 -62.015625 C 26.8125 -62.535156 29.367188 -62.164062 31.859375 -60.90625 C 34.359375 -59.644531 36.160156 -57.78125 37.265625 -55.3125 C 37.898438 -53.894531 38.375 -52.425781 38.6875 -50.90625 C 39 -49.382812 39.078125 -47.832031 38.921875 -46.25 C 38.867188 -45.46875 38.75 -44.984375 38.5625 -44.796875 C 38.382812 -44.609375 37.898438 -44.4375 37.109375 -44.28125 C 36.585938 -44.226562 36.050781 -44.160156 35.5 -44.078125 C 34.945312 -44.003906 34.378906 -43.914062 33.796875 -43.8125 C 32.910156 -43.707031 32.363281 -44.128906 32.15625 -45.078125 C 31.9375 -46.015625 31.722656 -46.929688 31.515625 -47.828125 C 31.304688 -48.722656 31.070312 -49.617188 30.8125 -50.515625 C 30.28125 -52.453125 29.4375 -54.34375 28.28125 -56.1875 C 27.96875 -56.65625 27.613281 -57.085938 27.21875 -57.484375 C 26.832031 -57.878906 26.320312 -58.023438 25.6875 -57.921875 C 25.0625 -57.867188 24.585938 -57.601562 24.265625 -57.125 C 23.953125 -56.65625 23.691406 -56.15625 23.484375 -55.625 C 22.847656 -53.894531 22.488281 -52.148438 22.40625 -50.390625 C 22.332031 -48.628906 22.425781 -46.859375 22.6875 -45.078125 C 22.90625 -43.921875 23.179688 -42.773438 23.515625 -41.640625 C 23.859375 -40.515625 24.238281 -39.375 24.65625 -38.21875 C 25.445312 -36.164062 26.207031 -34.113281 26.9375 -32.0625 C 27.675781 -30.019531 28.414062 -27.972656 29.15625 -25.921875 C 29.519531 -24.972656 29.820312 -24.421875 30.0625 -24.265625 C 30.300781 -24.109375 30.914062 -24.054688 31.90625 -24.109375 C 33.957031 -24.265625 36.019531 -24.421875 38.09375 -24.578125 C 40.164062 -24.742188 42.226562 -25.0625 44.28125 -25.53125 C 44.539062 -25.582031 44.910156 -25.660156 45.390625 -25.765625 C 46.066406 -25.816406 46.457031 -25.476562 46.5625 -24.75 C 46.664062 -24.007812 46.40625 -23.5625 45.78125 -23.40625 C 44.625 -23.144531 43.492188 -22.867188 42.390625 -22.578125 C 41.285156 -22.285156 40.15625 -22.113281 39 -22.0625 Z M 18.671875 1.265625 C 20.242188 0.734375 21.398438 -0.160156 22.140625 -1.421875 C 22.878906 -2.679688 23.25 -4.441406 23.25 -6.703125 C 23.09375 -8.640625 22.738281 -10.6875 22.1875 -12.84375 C 21.632812 -15 21.039062 -17.15625 20.40625 -19.3125 C 20.195312 -20.144531 19.644531 -20.457031 18.75 -20.25 C 17.488281 -20.039062 16.226562 -19.75 14.96875 -19.375 C 13.707031 -19.007812 12.523438 -18.460938 11.421875 -17.734375 C 9.535156 -16.578125 8.222656 -14.921875 7.484375 -12.765625 C 6.171875 -8.671875 6.773438 -4.890625 9.296875 -1.421875 C 10.398438 0.0976562 11.78125 1.082031 13.4375 1.53125 C 15.09375 1.976562 16.835938 1.890625 18.671875 1.265625 Z M 18.671875 1.265625 "/></g></g></g><g fill="#d8c40d" fill-opacity="1"><g transform="translate(45.682617, 80.078004)"><g><path d="M 23.875 -21.984375 C 23.875 -21.878906 23.847656 -21.800781 23.796875 -21.75 C 23.429688 -21.488281 23.195312 -21.1875 23.09375 -20.84375 C 22.988281 -20.5 22.851562 -20.171875 22.6875 -19.859375 C 22.0625 -18.390625 21.429688 -16.914062 20.796875 -15.4375 C 20.171875 -13.96875 19.539062 -12.5 18.90625 -11.03125 C 18.125 -9.300781 17.15625 -7.722656 16 -6.296875 C 14.789062 -4.773438 13.144531 -3.773438 11.0625 -3.296875 C 8.988281 -2.828125 7.085938 -3.015625 5.359375 -3.859375 C 4.617188 -4.222656 4.023438 -4.691406 3.578125 -5.265625 C 3.140625 -5.847656 2.757812 -6.484375 2.4375 -7.171875 C 1.8125 -8.535156 1.363281 -9.953125 1.09375 -11.421875 C 0.832031 -12.890625 0.648438 -14.363281 0.546875 -15.84375 C 0.390625 -19.726562 0.375 -23.613281 0.5 -27.5 C 0.632812 -31.382812 0.941406 -35.269531 1.421875 -39.15625 C 1.472656 -39.476562 1.535156 -39.78125 1.609375 -40.0625 C 1.691406 -40.351562 1.734375 -40.628906 1.734375 -40.890625 C 1.835938 -41.472656 2.207031 -41.789062 2.84375 -41.84375 C 3.675781 -41.945312 4.539062 -42.035156 5.4375 -42.109375 C 6.332031 -42.191406 7.222656 -42.257812 8.109375 -42.3125 C 8.796875 -42.3125 9.226562 -42.234375 9.40625 -42.078125 C 9.59375 -41.921875 9.660156 -41.472656 9.609375 -40.734375 C 9.503906 -38.847656 9.410156 -36.957031 9.328125 -35.0625 C 9.253906 -33.175781 9.140625 -31.285156 8.984375 -29.390625 C 8.722656 -26.554688 8.507812 -23.71875 8.34375 -20.875 C 8.1875 -18.039062 8.296875 -15.179688 8.671875 -12.296875 C 8.773438 -11.503906 8.890625 -10.726562 9.015625 -9.96875 C 9.148438 -9.207031 9.398438 -8.484375 9.765625 -7.796875 C 10.242188 -6.691406 10.925781 -6.5625 11.8125 -7.40625 C 12.082031 -7.71875 12.320312 -8.046875 12.53125 -8.390625 C 12.738281 -8.734375 12.945312 -9.085938 13.15625 -9.453125 C 14.570312 -11.867188 15.816406 -14.347656 16.890625 -16.890625 C 17.972656 -19.441406 19.039062 -22.03125 20.09375 -24.65625 C 20.9375 -26.757812 21.789062 -28.847656 22.65625 -30.921875 C 23.519531 -33.003906 24.375 -35.117188 25.21875 -37.265625 C 25.425781 -37.847656 25.710938 -38.28125 26.078125 -38.5625 C 26.453125 -38.851562 26.976562 -38.972656 27.65625 -38.921875 C 28.1875 -38.867188 28.710938 -38.878906 29.234375 -38.953125 C 29.753906 -39.035156 30.28125 -39.101562 30.8125 -39.15625 C 31.757812 -39.207031 32.285156 -38.765625 32.390625 -37.828125 C 32.546875 -36.460938 32.597656 -35.117188 32.546875 -33.796875 C 32.335938 -28.960938 32.019531 -24.144531 31.59375 -19.34375 C 31.175781 -14.539062 30.941406 -9.722656 30.890625 -4.890625 C 30.890625 -3.734375 30.898438 -2.550781 30.921875 -1.34375 C 30.953125 -0.132812 30.96875 1.046875 30.96875 2.203125 C 30.96875 2.734375 31.003906 3.257812 31.078125 3.78125 C 31.160156 4.300781 31.304688 4.828125 31.515625 5.359375 C 31.992188 4.941406 32.3125 4.484375 32.46875 3.984375 C 32.625 3.484375 32.78125 2.992188 32.9375 2.515625 C 33.9375 -0.472656 34.921875 -3.4375 35.890625 -6.375 C 36.859375 -9.320312 37.84375 -12.289062 38.84375 -15.28125 C 39 -15.707031 39.15625 -16.15625 39.3125 -16.625 C 39.476562 -17.09375 39.640625 -17.539062 39.796875 -17.96875 C 40.054688 -18.75 40.632812 -19.085938 41.53125 -18.984375 C 42.894531 -18.878906 43.65625 -18.707031 43.8125 -18.46875 C 43.96875 -18.238281 43.863281 -17.46875 43.5 -16.15625 C 42.5 -12.84375 41.507812 -9.53125 40.53125 -6.21875 C 39.5625 -2.914062 38.5 0.363281 37.34375 3.625 C 37.132812 4.144531 36.910156 4.679688 36.671875 5.234375 C 36.441406 5.785156 36.195312 6.328125 35.9375 6.859375 C 35.351562 8.117188 34.578125 8.972656 33.609375 9.421875 C 32.640625 9.867188 31.523438 10.0625 30.265625 10 C 27.785156 9.894531 26.101562 8.660156 25.21875 6.296875 C 24.84375 5.359375 24.550781 4.398438 24.34375 3.421875 C 24.132812 2.453125 23.953125 1.46875 23.796875 0.46875 C 23.429688 -2.207031 23.234375 -4.867188 23.203125 -7.515625 C 23.179688 -10.171875 23.273438 -12.835938 23.484375 -15.515625 C 23.535156 -16.566406 23.597656 -17.601562 23.671875 -18.625 C 23.753906 -19.65625 23.769531 -20.695312 23.71875 -21.75 C 23.820312 -21.800781 23.875 -21.851562 23.875 -21.90625 C 23.875 -21.90625 23.875 -21.929688 23.875 -21.984375 Z M 23.875 -21.984375 "/></g></g></g><g fill="#d8c40d" fill-opacity="1"><g transform="translate(85.701413, 80.078004)"><g><path d="M 44.28125 -23.015625 C 45.019531 -22.847656 45.492188 -22.644531 45.703125 -22.40625 C 45.910156 -22.175781 45.910156 -21.691406 45.703125 -20.953125 C 44.859375 -17.753906 43.859375 -14.628906 42.703125 -11.578125 C 41.546875 -8.535156 40.078125 -5.648438 38.296875 -2.921875 C 37.554688 -1.816406 36.796875 -0.894531 36.015625 -0.15625 C 34.910156 0.84375 33.488281 1.472656 31.75 1.734375 C 30.019531 1.992188 28.5 1.8125 27.1875 1.1875 C 26.445312 0.863281 25.867188 0.414062 25.453125 -0.15625 C 25.035156 -0.738281 24.664062 -1.394531 24.34375 -2.125 C 23.875 -3.332031 23.535156 -4.578125 23.328125 -5.859375 C 23.117188 -7.148438 22.988281 -8.453125 22.9375 -9.765625 C 22.769531 -12.453125 22.78125 -15.117188 22.96875 -17.765625 C 23.15625 -20.421875 23.300781 -23.085938 23.40625 -25.765625 C 23.5625 -28.648438 23.347656 -31.539062 22.765625 -34.4375 C 22.660156 -34.851562 22.539062 -35.3125 22.40625 -35.8125 C 22.28125 -36.3125 21.929688 -36.613281 21.359375 -36.71875 C 20.828125 -36.820312 20.40625 -36.703125 20.09375 -36.359375 C 19.78125 -36.023438 19.460938 -35.671875 19.140625 -35.296875 C 16.148438 -31.566406 13.867188 -27.445312 12.296875 -22.9375 C 11.035156 -19.3125 9.929688 -15.644531 8.984375 -11.9375 C 8.035156 -8.226562 7.222656 -4.507812 6.546875 -0.78125 C 6.328125 0.257812 6.113281 0.859375 5.90625 1.015625 C 5.695312 1.179688 5.09375 1.289062 4.09375 1.34375 C 3.726562 1.34375 3.359375 1.351562 2.984375 1.375 C 2.617188 1.40625 2.253906 1.421875 1.890625 1.421875 C 0.679688 1.523438 -0.0625 1.457031 -0.34375 1.21875 C -0.632812 0.976562 -0.863281 0.3125 -1.03125 -0.78125 C -1.238281 -2.15625 -1.445312 -3.523438 -1.65625 -4.890625 C -1.863281 -6.253906 -1.992188 -7.617188 -2.046875 -8.984375 C -2.253906 -13.972656 -2.226562 -18.945312 -1.96875 -23.90625 C -1.707031 -28.875 -1.15625 -33.828125 -0.3125 -38.765625 C -0.3125 -38.972656 -0.269531 -39.179688 -0.1875 -39.390625 C -0.113281 -39.609375 -0.078125 -39.820312 -0.078125 -40.03125 C 0.0234375 -41.082031 0.628906 -41.582031 1.734375 -41.53125 C 2.992188 -41.53125 4.332031 -41.554688 5.75 -41.609375 C 6.695312 -41.660156 7.222656 -41.1875 7.328125 -40.1875 C 7.378906 -39.5 7.40625 -38.894531 7.40625 -38.375 C 7.40625 -36.425781 7.40625 -34.46875 7.40625 -32.5 C 7.40625 -30.53125 7.40625 -28.546875 7.40625 -26.546875 C 7.40625 -26.234375 7.40625 -25.894531 7.40625 -25.53125 C 7.40625 -25.164062 7.40625 -24.742188 7.40625 -24.265625 C 7.820312 -24.585938 8.097656 -24.929688 8.234375 -25.296875 C 8.367188 -25.660156 8.515625 -26 8.671875 -26.3125 C 9.453125 -27.945312 10.273438 -29.535156 11.140625 -31.078125 C 12.015625 -32.628906 13.003906 -34.113281 14.109375 -35.53125 C 14.992188 -36.632812 15.972656 -37.582031 17.046875 -38.375 C 18.128906 -39.164062 19.378906 -39.71875 20.796875 -40.03125 C 23.953125 -40.757812 26.34375 -39.707031 27.96875 -36.875 C 28.5 -35.925781 28.878906 -34.925781 29.109375 -33.875 C 29.347656 -32.832031 29.519531 -31.785156 29.625 -30.734375 C 29.726562 -29.210938 29.765625 -27.6875 29.734375 -26.15625 C 29.710938 -24.632812 29.625 -23.113281 29.46875 -21.59375 C 29.207031 -18.75 29.023438 -15.894531 28.921875 -13.03125 C 28.816406 -10.175781 29.078125 -7.328125 29.703125 -4.484375 C 29.703125 -4.328125 29.710938 -4.179688 29.734375 -4.046875 C 29.765625 -3.921875 29.804688 -3.78125 29.859375 -3.625 C 30.015625 -3.15625 30.160156 -2.65625 30.296875 -2.125 C 30.429688 -1.601562 30.8125 -1.289062 31.4375 -1.1875 C 32.019531 -1.082031 32.503906 -1.222656 32.890625 -1.609375 C 33.285156 -2.003906 33.644531 -2.414062 33.96875 -2.84375 C 34.488281 -3.46875 34.957031 -4.160156 35.375 -4.921875 C 35.800781 -5.679688 36.222656 -6.429688 36.640625 -7.171875 C 37.847656 -9.484375 38.925781 -11.847656 39.875 -14.265625 C 40.820312 -16.679688 41.710938 -19.125 42.546875 -21.59375 C 42.648438 -22.007812 42.796875 -22.390625 42.984375 -22.734375 C 43.171875 -23.078125 43.601562 -23.171875 44.28125 -23.015625 Z M 44.28125 -23.015625 "/></g></g></g><g fill="#d8c40d" fill-opacity="1"><g transform="translate(127.610853, 80.078004)"><g><path d="M 3.15625 -18.046875 L 3.15625 -24.1875 L 22.21875 -24.1875 L 22.21875 -18.046875 Z M 3.15625 -18.046875 "/></g></g></g><g fill="#d8c40d" fill-opacity="1"><g transform="translate(152.977111, 80.078004)"><g><path d="M -1.8125 -23.171875 C -0.863281 -23.117188 0.078125 -22.984375 1.015625 -22.765625 C 1.960938 -22.554688 2.960938 -22.320312 4.015625 -22.0625 C 4.015625 -24.0625 4.015625 -25.976562 4.015625 -27.8125 C 4.015625 -29.65625 4.015625 -31.46875 4.015625 -33.25 C 3.960938 -36.71875 3.894531 -40.171875 3.8125 -43.609375 C 3.738281 -47.054688 3.675781 -50.484375 3.625 -53.890625 C 3.625 -55.203125 3.660156 -56.503906 3.734375 -57.796875 C 3.816406 -59.085938 3.960938 -60.363281 4.171875 -61.625 C 4.222656 -62.195312 4.378906 -62.664062 4.640625 -63.03125 C 4.910156 -63.40625 5.359375 -63.617188 5.984375 -63.671875 C 7.296875 -63.722656 8.625 -63.734375 9.96875 -63.703125 C 11.3125 -63.679688 12.664062 -63.644531 14.03125 -63.59375 C 15.019531 -63.539062 15.460938 -62.882812 15.359375 -61.625 C 15.253906 -59.46875 15.132812 -57.3125 15 -55.15625 C 14.875 -53 14.757812 -50.847656 14.65625 -48.703125 C 14.550781 -44.703125 14.445312 -40.71875 14.34375 -36.75 C 14.238281 -32.789062 14.132812 -28.816406 14.03125 -24.828125 C 14.03125 -24.503906 14.039062 -24.171875 14.0625 -23.828125 C 14.09375 -23.492188 14.109375 -23.164062 14.109375 -22.84375 C 14.472656 -22.632812 14.769531 -22.632812 15 -22.84375 C 15.238281 -23.0625 15.46875 -23.273438 15.6875 -23.484375 C 19.675781 -26.847656 23.113281 -30.671875 26 -34.953125 C 28.894531 -39.234375 31.128906 -44.023438 32.703125 -49.328125 C 33.328125 -51.484375 33.914062 -53.660156 34.46875 -55.859375 C 35.019531 -58.066406 35.585938 -60.25 36.171875 -62.40625 C 36.535156 -63.71875 36.847656 -64.460938 37.109375 -64.640625 C 37.367188 -64.828125 38.101562 -64.894531 39.3125 -64.84375 C 40.46875 -64.738281 41.28125 -64.609375 41.75 -64.453125 C 42.226562 -64.296875 42.492188 -63.941406 42.546875 -63.390625 C 42.597656 -62.835938 42.519531 -61.90625 42.3125 -60.59375 C 40.050781 -42.625 32.039062 -28.832031 18.28125 -19.21875 C 18.070312 -19.0625 17.847656 -18.914062 17.609375 -18.78125 C 17.367188 -18.65625 17.195312 -18.4375 17.09375 -18.125 C 17.09375 -17.8125 17.28125 -17.628906 17.65625 -17.578125 C 21.957031 -16.835938 26.171875 -16.78125 30.296875 -17.40625 C 34.421875 -18.039062 38.425781 -19.515625 42.3125 -21.828125 C 43.257812 -22.398438 44.148438 -23.054688 44.984375 -23.796875 C 45.828125 -24.535156 46.671875 -25.296875 47.515625 -26.078125 C 47.773438 -26.234375 48.050781 -26.441406 48.34375 -26.703125 C 48.632812 -26.972656 48.9375 -26.867188 49.25 -26.390625 C 49.457031 -26.023438 49.625 -25.601562 49.75 -25.125 C 49.882812 -24.65625 49.742188 -24.1875 49.328125 -23.71875 C 48.378906 -22.507812 47.300781 -21.484375 46.09375 -20.640625 C 43.832031 -19.015625 41.441406 -17.726562 38.921875 -16.78125 C 36.398438 -15.832031 33.800781 -15.175781 31.125 -14.8125 C 28.550781 -14.394531 25.988281 -14.1875 23.4375 -14.1875 C 20.894531 -14.1875 18.335938 -14.472656 15.765625 -15.046875 C 15.023438 -15.203125 14.5625 -15.203125 14.375 -15.046875 C 14.195312 -14.890625 14.132812 -14.363281 14.1875 -13.46875 C 14.238281 -10.789062 14.222656 -8.125 14.140625 -5.46875 C 14.066406 -2.820312 14.082031 -0.1875 14.1875 2.4375 C 14.289062 4.019531 14.195312 4.96875 13.90625 5.28125 C 13.613281 5.59375 12.757812 5.800781 11.34375 5.90625 C 10.71875 5.90625 10.085938 5.914062 9.453125 5.9375 C 8.828125 5.96875 8.195312 5.984375 7.5625 5.984375 C 6.832031 5.984375 6.359375 5.890625 6.140625 5.703125 C 5.929688 5.523438 5.773438 5.015625 5.671875 4.171875 C 5.515625 2.597656 5.359375 1.035156 5.203125 -0.515625 C 5.046875 -2.066406 4.941406 -3.628906 4.890625 -5.203125 C 4.890625 -6.304688 4.847656 -7.394531 4.765625 -8.46875 C 4.691406 -9.550781 4.625 -10.613281 4.5625 -11.65625 C 4.507812 -12.8125 4.015625 -13.3125 3.078125 -13.15625 C 1.390625 -12.894531 -0.394531 -12.921875 -2.28125 -13.234375 C -3.175781 -13.390625 -4.066406 -13.613281 -4.953125 -13.90625 C -5.847656 -14.195312 -6.691406 -14.65625 -7.484375 -15.28125 C -8.585938 -16.175781 -9.148438 -17.160156 -9.171875 -18.234375 C -9.203125 -19.316406 -8.691406 -20.304688 -7.640625 -21.203125 C -6.796875 -21.984375 -5.875 -22.503906 -4.875 -22.765625 C -3.882812 -23.035156 -2.863281 -23.171875 -1.8125 -23.171875 Z M -2.84375 -17.015625 C -2.3125 -16.703125 -1.753906 -16.503906 -1.171875 -16.421875 C -0.597656 -16.347656 0.109375 -16.3125 0.953125 -16.3125 C 1.160156 -16.363281 1.457031 -16.414062 1.84375 -16.46875 C 2.238281 -16.519531 2.648438 -16.597656 3.078125 -16.703125 C 3.335938 -16.753906 3.609375 -16.832031 3.890625 -16.9375 C 4.179688 -17.039062 4.328125 -17.332031 4.328125 -17.8125 C 4.328125 -18.175781 4.207031 -18.4375 3.96875 -18.59375 C 3.738281 -18.75 3.519531 -18.851562 3.3125 -18.90625 C 2.625 -19.113281 1.960938 -19.335938 1.328125 -19.578125 C 0.703125 -19.816406 0.078125 -20.015625 -0.546875 -20.171875 C -1.023438 -20.273438 -1.628906 -20.300781 -2.359375 -20.25 C -3.097656 -20.144531 -3.546875 -19.671875 -3.703125 -18.828125 C -3.804688 -18.410156 -3.753906 -18.054688 -3.546875 -17.765625 C -3.335938 -17.472656 -3.101562 -17.222656 -2.84375 -17.015625 Z M -2.84375 -17.015625 "/></g></g></g><g fill="#d8c40d" fill-opacity="1"><g transform="translate(197.80128, 80.078004)"><g><path d="M 23.171875 -23.09375 C 23.796875 -22.820312 24.09375 -22.488281 24.0625 -22.09375 C 24.039062 -21.707031 23.925781 -21.300781 23.71875 -20.875 C 22.769531 -18.675781 21.8125 -16.445312 20.84375 -14.1875 C 19.875 -11.925781 18.890625 -9.664062 17.890625 -7.40625 C 17.578125 -6.71875 17.257812 -6.046875 16.9375 -5.390625 C 16.625 -4.734375 16.285156 -4.066406 15.921875 -3.390625 C 15.023438 -1.867188 13.773438 -0.816406 12.171875 -0.234375 C 10.566406 0.335938 8.925781 0.441406 7.25 0.078125 C 5.570312 -0.285156 4.207031 -1.175781 3.15625 -2.59375 C 2.46875 -3.488281 1.925781 -4.4375 1.53125 -5.4375 C 1.144531 -6.4375 0.816406 -7.460938 0.546875 -8.515625 C 0.128906 -10.140625 -0.140625 -11.789062 -0.265625 -13.46875 C -0.398438 -15.15625 -0.441406 -16.734375 -0.390625 -18.203125 C -0.441406 -21.460938 -0.25 -24.585938 0.1875 -27.578125 C 0.632812 -30.578125 1.253906 -33.546875 2.046875 -36.484375 C 2.097656 -36.796875 2.1875 -37.109375 2.3125 -37.421875 C 2.445312 -37.742188 2.566406 -38.0625 2.671875 -38.375 C 2.941406 -39.113281 3.441406 -39.453125 4.171875 -39.390625 C 4.328125 -39.390625 4.457031 -39.390625 4.5625 -39.390625 C 4.675781 -39.390625 4.785156 -39.390625 4.890625 -39.390625 C 6.460938 -39.335938 7.390625 -39.164062 7.671875 -38.875 C 7.960938 -38.59375 8.03125 -37.691406 7.875 -36.171875 C 7.664062 -33.015625 7.457031 -29.882812 7.25 -26.78125 C 7.039062 -23.6875 6.988281 -20.59375 7.09375 -17.5 C 7.144531 -15.757812 7.195312 -14.035156 7.25 -12.328125 C 7.300781 -10.617188 7.484375 -8.925781 7.796875 -7.25 C 7.898438 -6.5625 8.054688 -5.898438 8.265625 -5.265625 C 8.484375 -4.640625 8.75 -4.039062 9.0625 -3.46875 C 9.75 -2.257812 10.457031 -2.207031 11.1875 -3.3125 C 11.5 -3.726562 11.773438 -4.171875 12.015625 -4.640625 C 12.253906 -5.117188 12.503906 -5.59375 12.765625 -6.0625 C 14.078125 -8.582031 15.375 -11.117188 16.65625 -13.671875 C 17.945312 -16.222656 19.25 -18.757812 20.5625 -21.28125 C 20.613281 -21.4375 20.675781 -21.578125 20.75 -21.703125 C 20.832031 -21.835938 20.898438 -21.984375 20.953125 -22.140625 C 21.328125 -22.828125 21.628906 -23.207031 21.859375 -23.28125 C 22.097656 -23.363281 22.535156 -23.300781 23.171875 -23.09375 Z M 6.625 -43.578125 C 4.414062 -43.523438 3.285156 -44.390625 3.234375 -46.171875 C 3.179688 -47.171875 3.46875 -48.023438 4.09375 -48.734375 C 4.726562 -49.441406 5.488281 -49.796875 6.375 -49.796875 C 7.476562 -49.796875 8.359375 -49.53125 9.015625 -49 C 9.671875 -48.476562 10 -47.75 10 -46.8125 C 10 -44.707031 8.875 -43.628906 6.625 -43.578125 Z M 6.625 -43.578125 "/></g></g></g><g fill="#d8c40d" fill-opacity="1"><g transform="translate(218.834788, 80.078004)"><g><path d="M 7.796875 -34.4375 C 7.691406 -34.59375 7.585938 -34.757812 7.484375 -34.9375 C 7.378906 -35.125 7.222656 -35.347656 7.015625 -35.609375 C 6.648438 -34.140625 6.347656 -32.722656 6.109375 -31.359375 C 5.867188 -29.992188 5.617188 -28.65625 5.359375 -27.34375 C 4.460938 -22.5625 3.304688 -17.867188 1.890625 -13.265625 C 0.472656 -8.671875 -1.15625 -4.144531 -3 0.3125 C -3.363281 1.3125 -3.726562 1.898438 -4.09375 2.078125 C -4.46875 2.265625 -5.097656 2.28125 -5.984375 2.125 C -6.878906 1.96875 -7.195312 1.46875 -6.9375 0.625 C -6.675781 -0.0507812 -6.4375 -0.742188 -6.21875 -1.453125 C -6.007812 -2.160156 -5.773438 -2.882812 -5.515625 -3.625 C -3.617188 -9.132812 -2.039062 -14.726562 -0.78125 -20.40625 C 0.476562 -26.082031 1.710938 -31.78125 2.921875 -37.5 C 3.128906 -38.445312 3.335938 -39.394531 3.546875 -40.34375 C 3.753906 -41.289062 3.960938 -42.210938 4.171875 -43.109375 C 4.859375 -45.890625 6.332031 -46.4375 8.59375 -44.75 C 10.164062 -43.539062 11.425781 -42.175781 12.375 -40.65625 C 14.257812 -37.613281 16.03125 -34.488281 17.6875 -31.28125 C 19.34375 -28.070312 20.722656 -24.738281 21.828125 -21.28125 C 22.140625 -20.382812 22.398438 -19.882812 22.609375 -19.78125 C 22.828125 -19.675781 23.40625 -19.804688 24.34375 -20.171875 C 25.550781 -20.691406 26.734375 -21.238281 27.890625 -21.8125 C 29.046875 -22.394531 30.148438 -23.054688 31.203125 -23.796875 C 31.460938 -24.003906 31.738281 -24.195312 32.03125 -24.375 C 32.320312 -24.5625 32.625 -24.710938 32.9375 -24.828125 C 33.882812 -25.035156 34.515625 -24.769531 34.828125 -24.03125 C 34.984375 -23.71875 34.96875 -23.441406 34.78125 -23.203125 C 34.601562 -22.960938 34.410156 -22.738281 34.203125 -22.53125 C 33.304688 -21.90625 32.382812 -21.273438 31.4375 -20.640625 C 30.488281 -20.015625 29.519531 -19.460938 28.53125 -18.984375 C 28 -18.722656 27.457031 -18.472656 26.90625 -18.234375 C 26.351562 -18.003906 25.816406 -17.785156 25.296875 -17.578125 C 24.242188 -17.203125 23.648438 -16.894531 23.515625 -16.65625 C 23.390625 -16.425781 23.429688 -15.8125 23.640625 -14.8125 C 23.796875 -14.238281 23.910156 -13.648438 23.984375 -13.046875 C 24.066406 -12.441406 24.160156 -11.847656 24.265625 -11.265625 C 24.472656 -10.109375 24.523438 -8.960938 24.421875 -7.828125 C 24.316406 -6.703125 24.132812 -5.5625 23.875 -4.40625 C 23.25 -2.039062 21.882812 -0.175781 19.78125 1.1875 C 17.9375 2.445312 16.003906 3.179688 13.984375 3.390625 C 11.960938 3.597656 9.925781 3.332031 7.875 2.59375 C 6.039062 1.96875 4.632812 0.972656 3.65625 -0.390625 C 2.6875 -1.753906 2.203125 -3.273438 2.203125 -4.953125 C 2.203125 -6.640625 2.753906 -8.269531 3.859375 -9.84375 C 4.859375 -11.269531 6.023438 -12.425781 7.359375 -13.3125 C 8.703125 -14.207031 10.132812 -15 11.65625 -15.6875 C 12.550781 -16.101562 13.171875 -16.441406 13.515625 -16.703125 C 13.859375 -16.960938 14.003906 -17.300781 13.953125 -17.71875 C 13.898438 -18.144531 13.738281 -18.804688 13.46875 -19.703125 C 12.6875 -22.222656 11.796875 -24.703125 10.796875 -27.140625 C 9.796875 -29.585938 8.796875 -32.019531 7.796875 -34.4375 Z M 15.609375 -2.125 C 15.867188 -2.863281 16.050781 -3.613281 16.15625 -4.375 C 16.257812 -5.132812 16.3125 -5.832031 16.3125 -6.46875 C 16.3125 -7.675781 16.21875 -8.789062 16.03125 -9.8125 C 15.851562 -10.832031 15.628906 -11.84375 15.359375 -12.84375 C 15.203125 -13.6875 14.785156 -13.921875 14.109375 -13.546875 C 12.742188 -12.867188 11.507812 -12.054688 10.40625 -11.109375 C 9.300781 -10.160156 8.457031 -8.953125 7.875 -7.484375 C 7.40625 -6.117188 7.335938 -4.816406 7.671875 -3.578125 C 8.015625 -2.347656 8.738281 -1.3125 9.84375 -0.46875 C 11 0.363281 12.113281 0.625 13.1875 0.3125 C 14.269531 0 15.078125 -0.8125 15.609375 -2.125 Z M 15.609375 -2.125 "/></g></g></g><g fill="#d8c40d" fill-opacity="1"><g transform="translate(249.872981, 80.078004)"><g><path d="M 7.796875 -34.4375 C 7.691406 -34.59375 7.585938 -34.757812 7.484375 -34.9375 C 7.378906 -35.125 7.222656 -35.347656 7.015625 -35.609375 C 6.648438 -34.140625 6.347656 -32.722656 6.109375 -31.359375 C 5.867188 -29.992188 5.617188 -28.65625 5.359375 -27.34375 C 4.460938 -22.5625 3.304688 -17.867188 1.890625 -13.265625 C 0.472656 -8.671875 -1.15625 -4.144531 -3 0.3125 C -3.363281 1.3125 -3.726562 1.898438 -4.09375 2.078125 C -4.46875 2.265625 -5.097656 2.28125 -5.984375 2.125 C -6.878906 1.96875 -7.195312 1.46875 -6.9375 0.625 C -6.675781 -0.0507812 -6.4375 -0.742188 -6.21875 -1.453125 C -6.007812 -2.160156 -5.773438 -2.882812 -5.515625 -3.625 C -3.617188 -9.132812 -2.039062 -14.726562 -0.78125 -20.40625 C 0.476562 -26.082031 1.710938 -31.78125 2.921875 -37.5 C 3.128906 -38.445312 3.335938 -39.394531 3.546875 -40.34375 C 3.753906 -41.289062 3.960938 -42.210938 4.171875 -43.109375 C 4.859375 -45.890625 6.332031 -46.4375 8.59375 -44.75 C 10.164062 -43.539062 11.425781 -42.175781 12.375 -40.65625 C 14.257812 -37.613281 16.03125 -34.488281 17.6875 -31.28125 C 19.34375 -28.070312 20.722656 -24.738281 21.828125 -21.28125 C 22.140625 -20.382812 22.398438 -19.882812 22.609375 -19.78125 C 22.828125 -19.675781 23.40625 -19.804688 24.34375 -20.171875 C 25.550781 -20.691406 26.734375 -21.238281 27.890625 -21.8125 C 29.046875 -22.394531 30.148438 -23.054688 31.203125 -23.796875 C 31.460938 -24.003906 31.738281 -24.195312 32.03125 -24.375 C 32.320312 -24.5625 32.625 -24.710938 32.9375 -24.828125 C 33.882812 -25.035156 34.515625 -24.769531 34.828125 -24.03125 C 34.984375 -23.71875 34.96875 -23.441406 34.78125 -23.203125 C 34.601562 -22.960938 34.410156 -22.738281 34.203125 -22.53125 C 33.304688 -21.90625 32.382812 -21.273438 31.4375 -20.640625 C 30.488281 -20.015625 29.519531 -19.460938 28.53125 -18.984375 C 28 -18.722656 27.457031 -18.472656 26.90625 -18.234375 C 26.351562 -18.003906 25.816406 -17.785156 25.296875 -17.578125 C 24.242188 -17.203125 23.648438 -16.894531 23.515625 -16.65625 C 23.390625 -16.425781 23.429688 -15.8125 23.640625 -14.8125 C 23.796875 -14.238281 23.910156 -13.648438 23.984375 -13.046875 C 24.066406 -12.441406 24.160156 -11.847656 24.265625 -11.265625 C 24.472656 -10.109375 24.523438 -8.960938 24.421875 -7.828125 C 24.316406 -6.703125 24.132812 -5.5625 23.875 -4.40625 C 23.25 -2.039062 21.882812 -0.175781 19.78125 1.1875 C 17.9375 2.445312 16.003906 3.179688 13.984375 3.390625 C 11.960938 3.597656 9.925781 3.332031 7.875 2.59375 C 6.039062 1.96875 4.632812 0.972656 3.65625 -0.390625 C 2.6875 -1.753906 2.203125 -3.273438 2.203125 -4.953125 C 2.203125 -6.640625 2.753906 -8.269531 3.859375 -9.84375 C 4.859375 -11.269531 6.023438 -12.425781 7.359375 -13.3125 C 8.703125 -14.207031 10.132812 -15 11.65625 -15.6875 C 12.550781 -16.101562 13.171875 -16.441406 13.515625 -16.703125 C 13.859375 -16.960938 14.003906 -17.300781 13.953125 -17.71875 C 13.898438 -18.144531 13.738281 -18.804688 13.46875 -19.703125 C 12.6875 -22.222656 11.796875 -24.703125 10.796875 -27.140625 C 9.796875 -29.585938 8.796875 -32.019531 7.796875 -34.4375 Z M 15.609375 -2.125 C 15.867188 -2.863281 16.050781 -3.613281 16.15625 -4.375 C 16.257812 -5.132812 16.3125 -5.832031 16.3125 -6.46875 C 16.3125 -7.675781 16.21875 -8.789062 16.03125 -9.8125 C 15.851562 -10.832031 15.628906 -11.84375 15.359375 -12.84375 C 15.203125 -13.6875 14.785156 -13.921875 14.109375 -13.546875 C 12.742188 -12.867188 11.507812 -12.054688 10.40625 -11.109375 C 9.300781 -10.160156 8.457031 -8.953125 7.875 -7.484375 C 7.40625 -6.117188 7.335938 -4.816406 7.671875 -3.578125 C 8.015625 -2.347656 8.738281 -1.3125 9.84375 -0.46875 C 11 0.363281 12.113281 0.625 13.1875 0.3125 C 14.269531 0 15.078125 -0.8125 15.609375 -2.125 Z M 15.609375 -2.125 "/></g></g></g><g fill="#d8c40d" fill-opacity="1"><g transform="translate(280.911175, 80.078004)"><g><path d="M 33.015625 -22.9375 C 33.535156 -22.613281 33.71875 -22.296875 33.5625 -21.984375 C 33.40625 -21.671875 33.222656 -21.351562 33.015625 -21.03125 C 31.179688 -18.300781 29.300781 -15.597656 27.375 -12.921875 C 25.457031 -10.242188 23.53125 -7.566406 21.59375 -4.890625 C 20.4375 -3.359375 19.066406 -2.273438 17.484375 -1.640625 C 15.910156 -1.015625 14.296875 -0.753906 12.640625 -0.859375 C 10.992188 -0.972656 9.429688 -1.359375 7.953125 -2.015625 C 6.484375 -2.671875 5.273438 -3.550781 4.328125 -4.65625 C 2.910156 -6.4375 1.78125 -8.335938 0.9375 -10.359375 C 0.101562 -12.378906 -0.492188 -14.519531 -0.859375 -16.78125 C -1.023438 -17.570312 -1.144531 -18.375 -1.21875 -19.1875 C -1.300781 -20 -1.316406 -20.828125 -1.265625 -21.671875 C -1.210938 -24.191406 -0.910156 -26.671875 -0.359375 -29.109375 C 0.191406 -31.554688 1.070312 -33.9375 2.28125 -36.25 C 2.96875 -37.5625 3.796875 -38.78125 4.765625 -39.90625 C 5.734375 -41.039062 6.875 -41.972656 8.1875 -42.703125 C 9.664062 -43.546875 11.140625 -44.019531 12.609375 -44.125 C 14.078125 -44.226562 15.546875 -43.78125 17.015625 -42.78125 C 18.484375 -41.789062 19.476562 -40.582031 20 -39.15625 C 20.53125 -37.738281 20.664062 -36.164062 20.40625 -34.4375 C 19.9375 -31.332031 18.847656 -28.726562 17.140625 -26.625 C 15.429688 -24.53125 13.050781 -23.035156 10 -22.140625 C 9.007812 -21.878906 8.539062 -21.273438 8.59375 -20.328125 C 8.644531 -18.066406 8.890625 -15.847656 9.328125 -13.671875 C 9.773438 -11.492188 10.34375 -9.351562 11.03125 -7.25 C 11.34375 -6.300781 11.84375 -5.460938 12.53125 -4.734375 C 13.476562 -3.734375 14.53125 -3.625 15.6875 -4.40625 C 16.101562 -4.675781 16.46875 -4.976562 16.78125 -5.3125 C 17.09375 -5.65625 17.410156 -6.007812 17.734375 -6.375 C 19.617188 -8.53125 21.425781 -10.75 23.15625 -13.03125 C 24.894531 -15.320312 26.601562 -17.625 28.28125 -19.9375 C 28.601562 -20.40625 28.929688 -20.890625 29.265625 -21.390625 C 29.609375 -21.890625 29.96875 -22.375 30.34375 -22.84375 C 30.757812 -23.320312 31.148438 -23.5625 31.515625 -23.5625 C 31.890625 -23.5625 32.390625 -23.351562 33.015625 -22.9375 Z M 9.84375 -32.546875 C 9.53125 -31.285156 9.253906 -30.007812 9.015625 -28.71875 C 8.785156 -27.4375 8.671875 -26.113281 8.671875 -24.75 C 8.929688 -24.6875 9.148438 -24.679688 9.328125 -24.734375 C 9.515625 -24.796875 9.6875 -24.878906 9.84375 -24.984375 C 11.101562 -25.710938 12.179688 -26.835938 13.078125 -28.359375 C 13.972656 -29.890625 14.578125 -31.519531 14.890625 -33.25 C 15.203125 -34.988281 15.148438 -36.539062 14.734375 -37.90625 C 14.679688 -37.957031 14.65625 -38.019531 14.65625 -38.09375 C 14.65625 -38.175781 14.628906 -38.242188 14.578125 -38.296875 C 14.421875 -38.609375 14.25 -38.910156 14.0625 -39.203125 C 13.882812 -39.492188 13.609375 -39.640625 13.234375 -39.640625 C 12.867188 -39.691406 12.582031 -39.582031 12.375 -39.3125 C 12.164062 -39.050781 11.976562 -38.765625 11.8125 -38.453125 C 11.445312 -37.453125 11.09375 -36.46875 10.75 -35.5 C 10.414062 -34.53125 10.113281 -33.546875 9.84375 -32.546875 Z M 9.84375 -32.546875 "/></g></g></g><g fill="#d8c40d" fill-opacity="1"><g transform="translate(310.610133, 80.078004)"><g><path d="M 18.75 -18.90625 C 18.75 -19.007812 18.734375 -19.140625 18.703125 -19.296875 C 18.679688 -19.460938 18.566406 -19.597656 18.359375 -19.703125 C 18.148438 -19.441406 17.992188 -19.140625 17.890625 -18.796875 C 17.785156 -18.453125 17.65625 -18.125 17.5 -17.8125 C 16.96875 -16.394531 16.4375 -15 15.90625 -13.625 C 15.382812 -12.257812 14.785156 -10.894531 14.109375 -9.53125 C 13.421875 -8.164062 12.550781 -7.085938 11.5 -6.296875 C 10.445312 -5.515625 9.109375 -5.203125 7.484375 -5.359375 C 5.703125 -5.515625 4.113281 -5.957031 2.71875 -6.6875 C 1.320312 -7.425781 0.285156 -8.71875 -0.390625 -10.5625 C -1.023438 -12.238281 -1.328125 -13.941406 -1.296875 -15.671875 C -1.273438 -17.410156 -1.101562 -19.144531 -0.78125 -20.875 C -0.257812 -23.71875 0.8125 -26.375 2.4375 -28.84375 C 4.125 -31.519531 6.203125 -33.515625 8.671875 -34.828125 C 11.140625 -36.140625 13.894531 -36.898438 16.9375 -37.109375 C 17.988281 -37.210938 18.628906 -37.359375 18.859375 -37.546875 C 19.097656 -37.734375 19.300781 -38.320312 19.46875 -39.3125 C 19.78125 -41.78125 20.117188 -44.25 20.484375 -46.71875 C 20.847656 -49.195312 21.347656 -51.640625 21.984375 -54.046875 C 22.140625 -54.835938 22.347656 -55.625 22.609375 -56.40625 C 22.878906 -57.195312 23.144531 -57.960938 23.40625 -58.703125 C 23.664062 -59.648438 24.242188 -60.125 25.140625 -60.125 C 25.972656 -60.125 26.796875 -60.132812 27.609375 -60.15625 C 28.429688 -60.1875 29.234375 -60.203125 30.015625 -60.203125 C 30.960938 -60.253906 31.4375 -59.804688 31.4375 -58.859375 C 31.382812 -58.066406 31.359375 -57.289062 31.359375 -56.53125 C 31.359375 -55.769531 31.332031 -55 31.28125 -54.21875 C 30.8125 -46.59375 30.390625 -38.957031 30.015625 -31.3125 C 29.648438 -23.675781 29.570312 -16.023438 29.78125 -8.359375 C 29.78125 -6.722656 29.78125 -5.117188 29.78125 -3.546875 C 29.78125 -1.972656 29.78125 -0.367188 29.78125 1.265625 C 29.832031 3.203125 30.097656 5.171875 30.578125 7.171875 C 30.628906 7.378906 30.691406 7.5625 30.765625 7.71875 C 30.847656 7.875 31.019531 7.953125 31.28125 7.953125 C 31.4375 7.953125 31.550781 7.882812 31.625 7.75 C 31.707031 7.625 31.800781 7.507812 31.90625 7.40625 C 32.226562 6.882812 32.476562 6.347656 32.65625 5.796875 C 32.84375 5.242188 33.039062 4.675781 33.25 4.09375 C 34.25 0.46875 35.257812 -3.164062 36.28125 -6.8125 C 37.3125 -10.46875 38.320312 -14.132812 39.3125 -17.8125 C 39.363281 -17.96875 39.414062 -18.132812 39.46875 -18.3125 C 39.53125 -18.5 39.585938 -18.671875 39.640625 -18.828125 C 39.847656 -19.410156 40.117188 -19.765625 40.453125 -19.890625 C 40.796875 -20.023438 41.335938 -20.015625 42.078125 -19.859375 C 42.648438 -19.753906 42.960938 -19.515625 43.015625 -19.140625 C 43.078125 -18.773438 43.050781 -18.410156 42.9375 -18.046875 C 41.945312 -14.265625 40.976562 -10.507812 40.03125 -6.78125 C 39.082031 -3.050781 38.109375 0.675781 37.109375 4.40625 C 36.847656 5.351562 36.53125 6.273438 36.15625 7.171875 C 35.789062 8.066406 35.375 8.929688 34.90625 9.765625 C 34.28125 10.816406 33.390625 11.550781 32.234375 11.96875 C 31.078125 12.394531 29.90625 12.488281 28.71875 12.25 C 27.539062 12.007812 26.554688 11.421875 25.765625 10.484375 C 25.242188 9.898438 24.796875 9.253906 24.421875 8.546875 C 24.054688 7.835938 23.742188 7.113281 23.484375 6.375 C 22.535156 4.019531 21.757812 1.625 21.15625 -0.8125 C 20.550781 -3.257812 20.066406 -5.75 19.703125 -8.28125 C 19.441406 -10.007812 19.21875 -11.765625 19.03125 -13.546875 C 18.84375 -15.335938 18.75 -17.125 18.75 -18.90625 Z M 6.625 -10.796875 C 6.625 -10.429688 6.675781 -10.0625 6.78125 -9.6875 C 6.882812 -9.320312 7.144531 -9.007812 7.5625 -8.75 C 8.144531 -9.320312 8.59375 -9.945312 8.90625 -10.625 C 9.21875 -11.3125 9.503906 -12.023438 9.765625 -12.765625 C 11.023438 -16.078125 12.328125 -19.382812 13.671875 -22.6875 C 15.015625 -26 16.367188 -29.285156 17.734375 -32.546875 C 17.785156 -32.804688 17.863281 -33.050781 17.96875 -33.28125 C 18.070312 -33.519531 18.046875 -33.773438 17.890625 -34.046875 C 17.835938 -34.046875 17.769531 -34.054688 17.6875 -34.078125 C 17.613281 -34.109375 17.523438 -34.125 17.421875 -34.125 C 17.253906 -34.070312 17.039062 -34.019531 16.78125 -33.96875 C 15.207031 -33.539062 13.84375 -32.84375 12.6875 -31.875 C 11.53125 -30.90625 10.53125 -29.707031 9.6875 -28.28125 C 8.0625 -25.601562 7.023438 -22.78125 6.578125 -19.8125 C 6.128906 -16.84375 6.144531 -13.835938 6.625 -10.796875 Z M 6.625 -10.796875 "/></g></g></g><g fill="#000000" fill-opacity="1"><g transform="translate(381.266498, 66.169735)"><g><path d="M 8.59375 5.828125 C 8.0625 5.878906 7.664062 5.644531 7.40625 5.125 C 7.351562 4.863281 7.3125 4.597656 7.28125 4.328125 C 7.257812 4.066406 7.25 3.804688 7.25 3.546875 C 7.25 3.285156 7.257812 3.019531 7.28125 2.75 C 7.3125 2.488281 7.351562 2.253906 7.40625 2.046875 L 8.109375 -1.265625 C 8.222656 -1.578125 8.316406 -1.890625 8.390625 -2.203125 C 8.472656 -2.515625 8.460938 -2.859375 8.359375 -3.234375 C 7.984375 -3.492188 7.664062 -3.597656 7.40625 -3.546875 C 7.195312 -3.492188 7.015625 -3.476562 6.859375 -3.5 C 6.703125 -3.53125 6.539062 -3.570312 6.375 -3.625 C 5.007812 -3.988281 4.050781 -4.65625 3.5 -5.625 C 2.945312 -6.601562 2.960938 -7.773438 3.546875 -9.140625 C 4.066406 -10.398438 4.75 -11.539062 5.59375 -12.5625 C 6.4375 -13.59375 7.382812 -14.523438 8.4375 -15.359375 L 9.921875 -16.3125 C 10.503906 -16.726562 10.503906 -17.097656 9.921875 -17.421875 C 9.867188 -17.472656 9.800781 -17.507812 9.71875 -17.53125 C 9.644531 -17.5625 9.554688 -17.601562 9.453125 -17.65625 C 9.347656 -17.65625 9.191406 -17.707031 8.984375 -17.8125 C 7.773438 -18.4375 7 -19.171875 6.65625 -20.015625 C 6.3125 -20.859375 6.328125 -21.910156 6.703125 -23.171875 C 7.222656 -24.691406 8.269531 -26.195312 9.84375 -27.6875 C 11.425781 -29.1875 13.003906 -30.253906 14.578125 -30.890625 C 15.316406 -31.203125 15.84375 -31.832031 16.15625 -32.78125 C 16.414062 -33.675781 16.691406 -34.53125 16.984375 -35.34375 C 17.273438 -36.15625 17.578125 -36.984375 17.890625 -37.828125 C 17.992188 -38.242188 18.238281 -38.78125 18.625 -39.4375 C 19.019531 -40.09375 19.457031 -40.421875 19.9375 -40.421875 C 19.988281 -40.421875 20.039062 -40.40625 20.09375 -40.375 C 20.144531 -40.351562 20.222656 -40.316406 20.328125 -40.265625 C 20.742188 -39.953125 20.796875 -39.398438 20.484375 -38.609375 C 20.378906 -38.242188 20.25 -37.898438 20.09375 -37.578125 C 19.9375 -37.265625 19.78125 -36.953125 19.625 -36.640625 C 19.46875 -36.273438 19.304688 -35.929688 19.140625 -35.609375 C 18.984375 -35.296875 18.851562 -34.957031 18.75 -34.59375 C 18.695312 -34.4375 18.65625 -34.273438 18.625 -34.109375 C 18.601562 -33.953125 18.566406 -33.796875 18.515625 -33.640625 C 18.460938 -33.429688 18.410156 -33.25 18.359375 -33.09375 C 18.304688 -32.9375 18.253906 -32.78125 18.203125 -32.625 C 18.148438 -32.257812 18.304688 -31.992188 18.671875 -31.828125 C 18.773438 -31.773438 18.90625 -31.722656 19.0625 -31.671875 C 19.226562 -31.617188 19.390625 -31.566406 19.546875 -31.515625 C 19.648438 -31.460938 19.78125 -31.410156 19.9375 -31.359375 C 20.09375 -31.304688 20.222656 -31.253906 20.328125 -31.203125 C 20.796875 -30.992188 21.085938 -30.597656 21.203125 -30.015625 C 21.203125 -29.753906 21.109375 -29.503906 20.921875 -29.265625 C 20.734375 -29.035156 20.507812 -28.921875 20.25 -28.921875 C 20.144531 -28.921875 20.066406 -28.945312 20.015625 -29 C 19.222656 -29.46875 18.515625 -29.703125 17.890625 -29.703125 C 17.046875 -29.703125 16.125 -29.453125 15.125 -28.953125 C 14.125 -28.453125 13.175781 -27.832031 12.28125 -27.09375 C 11.394531 -26.363281 10.664062 -25.6875 10.09375 -25.0625 C 9.976562 -24.851562 9.84375 -24.65625 9.6875 -24.46875 C 9.53125 -24.28125 9.398438 -24.082031 9.296875 -23.875 C 8.984375 -23.40625 8.800781 -22.984375 8.75 -22.609375 C 8.21875 -21.035156 8.691406 -20.015625 10.171875 -19.546875 C 10.535156 -19.441406 10.910156 -19.332031 11.296875 -19.21875 C 11.691406 -19.113281 12.078125 -19.035156 12.453125 -18.984375 C 12.816406 -18.929688 13.179688 -18.863281 13.546875 -18.78125 C 13.921875 -18.707031 14.289062 -18.617188 14.65625 -18.515625 C 15.445312 -18.359375 15.945312 -18.203125 16.15625 -18.046875 C 16.414062 -17.835938 16.492188 -17.597656 16.390625 -17.328125 C 16.285156 -16.910156 16.085938 -16.648438 15.796875 -16.546875 C 15.503906 -16.441406 15.175781 -16.335938 14.8125 -16.234375 C 13.132812 -15.703125 11.597656 -14.976562 10.203125 -14.0625 C 8.804688 -13.144531 7.585938 -11.953125 6.546875 -10.484375 C 6.273438 -10.054688 6.019531 -9.644531 5.78125 -9.25 C 5.550781 -8.863281 5.382812 -8.429688 5.28125 -7.953125 C 4.96875 -7.015625 5.304688 -6.304688 6.296875 -5.828125 C 6.773438 -5.617188 7.222656 -5.515625 7.640625 -5.515625 C 8.429688 -5.515625 9.429688 -5.765625 10.640625 -6.265625 C 11.847656 -6.765625 13.039062 -7.328125 14.21875 -7.953125 C 15.40625 -8.585938 16.285156 -9.140625 16.859375 -9.609375 C 17.285156 -9.929688 17.65625 -10.328125 17.96875 -10.796875 C 18.28125 -11.265625 18.59375 -11.738281 18.90625 -12.21875 C 19.0625 -12.425781 19.300781 -12.53125 19.625 -12.53125 C 19.832031 -12.53125 19.960938 -12.503906 20.015625 -12.453125 C 20.429688 -12.242188 20.613281 -11.875 20.5625 -11.34375 C 20.40625 -10.613281 19.921875 -9.8125 19.109375 -8.9375 C 18.296875 -8.070312 17.390625 -7.3125 16.390625 -6.65625 C 15.390625 -6 14.523438 -5.566406 13.796875 -5.359375 C 12.640625 -4.992188 11.796875 -4.453125 11.265625 -3.734375 C 10.742188 -3.023438 10.378906 -2.097656 10.171875 -0.953125 C 10.117188 -0.472656 10.023438 0 9.890625 0.46875 C 9.753906 0.945312 9.632812 1.421875 9.53125 1.890625 C 9.269531 2.835938 9.191406 3.835938 9.296875 4.890625 C 9.398438 5.359375 9.164062 5.671875 8.59375 5.828125 Z M 8.59375 5.828125 "/></g></g></g><g fill="#0f9098" fill-opacity="1"><g transform="translate(429.270743, 81.005198)"><g><path d="M 76.453125 -12.296875 C 76.492188 -10.859375 75.3125 -9.332031 72.90625 -7.71875 C 72.394531 -6.5625 71.445312 -5.539062 70.0625 -4.65625 C 67.789062 -3.175781 65.796875 -2.226562 64.078125 -1.8125 C 57.828125 0.0390625 52.960938 1.28125 49.484375 1.90625 C 46.003906 2.53125 42.710938 2.773438 39.609375 2.640625 C 38.734375 2.546875 37.984375 2.519531 37.359375 2.5625 C 36.734375 2.613281 36.175781 2.695312 35.6875 2.8125 C 35.195312 2.925781 34.707031 3.097656 34.21875 3.328125 C 33.738281 3.566406 33.265625 3.867188 32.796875 4.234375 C 30.617188 5.816406 27.421875 6.351562 23.203125 5.84375 C 18.992188 5.332031 15.753906 3.988281 13.484375 1.8125 C 12.003906 0.414062 10.878906 -0.382812 10.109375 -0.59375 C 9.347656 -0.800781 8.410156 -0.554688 7.296875 0.140625 C 5.578125 1.160156 4.3125 1.046875 3.5 -0.203125 C 2.695312 -1.453125 2.875 -3.003906 4.03125 -4.859375 C 4.632812 -5.972656 4.585938 -8.046875 3.890625 -11.078125 C 3.191406 -14.117188 3.144531 -15.914062 3.75 -16.46875 C 4.351562 -17.03125 5.882812 -16.59375 8.34375 -15.15625 L 12.375 -12.921875 L 15.984375 -16.609375 C 17.703125 -18.234375 20.644531 -21.535156 24.8125 -26.515625 C 28.976562 -31.492188 31.6875 -34.65625 32.9375 -36 L 36.203125 -39.40625 L 35.71875 -44.765625 C 35.445312 -48.367188 34.867188 -50.984375 33.984375 -52.609375 C 32.640625 -55.109375 32.316406 -57.492188 33.015625 -59.765625 C 33.660156 -62.035156 35.46875 -64.722656 38.4375 -67.828125 C 39.59375 -68.984375 40.5625 -69.78125 41.34375 -70.21875 C 42.132812 -70.664062 43.109375 -70.890625 44.265625 -70.890625 C 45.609375 -70.890625 47.3125 -70.398438 49.375 -69.421875 C 51.4375 -68.453125 52.515625 -67.644531 52.609375 -67 C 53.210938 -62.875 53.164062 -60.460938 52.46875 -59.765625 C 52.144531 -59.347656 51.5 -57.539062 50.53125 -54.34375 C 49.507812 -51.382812 48.164062 -48.816406 46.5 -46.640625 C 45.007812 -44.460938 44.265625 -43.09375 44.265625 -42.53125 C 44.265625 -41.925781 43.894531 -41.234375 43.15625 -40.453125 C 42.375 -39.523438 42.210938 -37.691406 42.671875 -34.953125 C 45.410156 -21.003906 45.6875 -11.785156 43.5 -7.296875 C 42.488281 -5.210938 42.210938 -4.007812 42.671875 -3.6875 C 43.046875 -3.40625 44.4375 -3.566406 46.84375 -4.171875 C 48.738281 -4.628906 51.445312 -5.140625 54.96875 -5.703125 C 55.757812 -5.835938 56.582031 -6.054688 57.4375 -6.359375 C 58.300781 -6.660156 59.191406 -6.992188 60.109375 -7.359375 C 61.035156 -7.734375 61.847656 -8.035156 62.546875 -8.265625 C 63.429688 -8.503906 64.007812 -8.738281 64.28125 -8.96875 C 64.46875 -9.0625 64.640625 -9.1875 64.796875 -9.34375 C 64.960938 -9.507812 65.101562 -9.660156 65.21875 -9.796875 C 65.34375 -9.941406 65.492188 -10.09375 65.671875 -10.25 C 65.859375 -10.414062 66.019531 -10.546875 66.15625 -10.640625 C 66.757812 -11.140625 67.875 -11.664062 69.5 -12.21875 C 71.125 -12.78125 72.191406 -13.203125 72.703125 -13.484375 C 73.210938 -13.765625 73.648438 -13.972656 74.015625 -14.109375 C 74.390625 -14.242188 74.785156 -14.320312 75.203125 -14.34375 C 75.617188 -14.375 75.929688 -14.210938 76.140625 -13.859375 C 76.347656 -13.515625 76.453125 -12.992188 76.453125 -12.296875 Z M 34.265625 -6.875 C 36.578125 -9.050781 37.988281 -11.019531 38.5 -12.78125 C 39.007812 -14.539062 39.101562 -17.671875 38.78125 -22.171875 C 38.320312 -27.359375 37.8125 -30.066406 37.25 -30.296875 C 36.789062 -30.441406 35.285156 -29.078125 32.734375 -26.203125 C 30.878906 -24.117188 28.050781 -20.988281 24.25 -16.8125 C 21.050781 -13.53125 19.453125 -11.425781 19.453125 -10.5 C 19.453125 -9.800781 20.550781 -8.742188 22.75 -7.328125 C 24.957031 -5.921875 26.941406 -4.984375 28.703125 -4.515625 C 29.671875 -4.285156 30.503906 -4.320312 31.203125 -4.625 C 31.898438 -4.925781 32.921875 -5.675781 34.265625 -6.875 Z M 41.140625 -50.390625 C 41.703125 -50.617188 42.78125 -52.664062 44.375 -56.53125 C 45.976562 -60.40625 46.613281 -62.617188 46.28125 -63.171875 C 45.820312 -64.660156 44.6875 -64.613281 42.875 -63.03125 C 41.625 -62.007812 40.722656 -60.644531 40.171875 -58.9375 C 39.429688 -56.625 39.40625 -54.164062 40.09375 -51.5625 C 40.46875 -50.78125 40.816406 -50.390625 41.140625 -50.390625 Z M 41.140625 -50.390625 "/></g></g></g><g fill="#0f9098" fill-opacity="1"><g transform="translate(498.027709, 81.005198)"><g><path d="M 40.65625 -13.34375 C 41.351562 -12.96875 41.703125 -12.15625 41.703125 -10.90625 C 41.742188 -9.46875 40.929688 -8.125 39.265625 -6.875 C 38.660156 -6.457031 37.96875 -6.039062 37.1875 -5.625 C 37.039062 -5.582031 36.878906 -5.488281 36.703125 -5.34375 C 36.046875 -4.976562 35.488281 -4.769531 35.03125 -4.71875 C 33.632812 -4.632812 32.289062 -5.191406 31 -6.390625 C 30.675781 -6.671875 30.328125 -7.160156 29.953125 -7.859375 L 29.75 -8.203125 C 29.332031 -8.898438 28.9375 -9.335938 28.5625 -9.515625 C 28.195312 -9.703125 27.734375 -9.65625 27.171875 -9.375 C 26.472656 -9.007812 25.6875 -7.878906 24.8125 -5.984375 C 24.394531 -5.003906 24.046875 -4.332031 23.765625 -3.96875 C 22.890625 -2.664062 22.125 -1.921875 21.46875 -1.734375 C 20.632812 -1.316406 19.5 -0.671875 18.0625 0.203125 C 16.300781 1.273438 14.632812 1.859375 13.0625 1.953125 C 11.257812 2.085938 9.914062 2.269531 9.03125 2.5 C 8.800781 2.550781 8.570312 2.578125 8.34375 2.578125 C 7.832031 2.578125 7.390625 2.484375 7.015625 2.296875 C 6.460938 2.066406 5.65625 1.441406 4.59375 0.421875 C 3.425781 -0.648438 2.632812 -1.585938 2.21875 -2.390625 C 1.800781 -3.203125 1.382812 -4.628906 0.96875 -6.671875 C 0.28125 -10.003906 0.117188 -12.675781 0.484375 -14.6875 C 0.859375 -16.707031 1.878906 -19.0625 3.546875 -21.75 C 5.671875 -25.175781 7.6875 -27.65625 9.59375 -29.1875 C 11.488281 -30.71875 13.828125 -31.804688 16.609375 -32.453125 C 17.953125 -32.734375 19.132812 -33.222656 20.15625 -33.921875 C 21.78125 -34.984375 23.21875 -35.375 24.46875 -35.09375 C 25.664062 -34.863281 27.054688 -33.914062 28.640625 -32.25 C 29.472656 -31.320312 30.070312 -30.578125 30.4375 -30.015625 C 30.8125 -29.460938 31.066406 -28.929688 31.203125 -28.421875 C 31.335938 -27.910156 31.40625 -27.171875 31.40625 -26.203125 C 31.40625 -22.078125 31.546875 -18.878906 31.828125 -16.609375 C 31.972656 -15.265625 32.285156 -14.234375 32.765625 -13.515625 C 33.253906 -12.796875 34.101562 -11.925781 35.3125 -10.90625 L 35.515625 -11.046875 C 36.347656 -11.609375 36.953125 -12.050781 37.328125 -12.375 C 38.710938 -13.4375 39.820312 -13.757812 40.65625 -13.34375 Z M 24.609375 -25.296875 C 24.609375 -27.109375 24.421875 -28.101562 24.046875 -28.28125 C 23.953125 -28.1875 23.859375 -28.070312 23.765625 -27.9375 C 23.535156 -27.519531 23.5625 -26.570312 23.84375 -25.09375 C 24.019531 -24.019531 24.203125 -23.347656 24.390625 -23.078125 C 24.535156 -23.441406 24.609375 -24.179688 24.609375 -25.296875 Z M 22.59375 -14.59375 C 22.769531 -15.65625 22.742188 -16.421875 22.515625 -16.890625 C 22.328125 -17.347656 21.75 -18.066406 20.78125 -19.046875 C 19.25 -20.523438 18.484375 -21.75 18.484375 -22.71875 C 18.484375 -23.375 18.273438 -24.140625 17.859375 -25.015625 C 17.441406 -25.898438 17.023438 -26.476562 16.609375 -26.75 C 16.285156 -26.988281 16.007812 -27.109375 15.78125 -27.109375 C 15.59375 -27.109375 15.429688 -27.0625 15.296875 -26.96875 C 14.828125 -26.738281 13.875 -25.878906 12.4375 -24.390625 C 11.1875 -23.140625 10.015625 -21.539062 8.921875 -19.59375 C 7.835938 -17.65625 7.039062 -15.828125 6.53125 -14.109375 C 6.019531 -12.484375 5.925781 -11.300781 6.25 -10.5625 C 6.625 -9.863281 6.832031 -8.679688 6.875 -7.015625 C 7.019531 -5.765625 7.207031 -4.835938 7.4375 -4.234375 C 7.664062 -3.722656 8.015625 -3.378906 8.484375 -3.203125 C 8.992188 -2.960938 9.828125 -2.84375 10.984375 -2.84375 C 11.535156 -2.84375 12 -2.867188 12.375 -2.921875 C 12.738281 -2.921875 13.082031 -2.96875 13.40625 -3.0625 C 13.738281 -3.15625 14.039062 -3.269531 14.3125 -3.40625 C 14.632812 -3.59375 14.960938 -3.800781 15.296875 -4.03125 C 15.617188 -4.257812 16.007812 -4.5625 16.46875 -4.9375 C 18.226562 -6.320312 19.222656 -7.429688 19.453125 -8.265625 C 19.734375 -9.148438 20.289062 -10.078125 21.125 -11.046875 C 21.863281 -11.835938 22.351562 -13.019531 22.59375 -14.59375 Z M 22.59375 -14.59375 "/></g></g></g><g fill="#0f9098" fill-opacity="1"><g transform="translate(535.793647, 81.005198)"><g><path d="M 47.53125 -9.3125 C 48.550781 -10.144531 49.441406 -10.488281 50.203125 -10.34375 C 50.972656 -10.207031 51.359375 -9.46875 51.359375 -8.125 C 51.359375 -7.707031 51.265625 -7.289062 51.078125 -6.875 C 50.890625 -6.457031 50.679688 -6.109375 50.453125 -5.828125 C 50.222656 -5.554688 49.875 -5.222656 49.40625 -4.828125 C 48.945312 -4.429688 48.585938 -4.140625 48.328125 -3.953125 C 48.078125 -3.773438 47.6875 -3.507812 47.15625 -3.15625 C 46.625 -2.8125 46.285156 -2.59375 46.140625 -2.5 C 42.859375 -0.226562 41.171875 0.972656 41.078125 1.109375 C 40.796875 1.390625 40.109375 1.691406 39.015625 2.015625 C 37.929688 2.335938 37.085938 2.5 36.484375 2.5 C 35.703125 2.726562 35.007812 2.84375 34.40625 2.84375 C 33.800781 2.84375 33.113281 2.738281 32.34375 2.53125 C 31.582031 2.320312 31.023438 2.148438 30.671875 2.015625 C 30.328125 1.878906 30.039062 1.765625 29.8125 1.671875 C 28.5625 1.066406 26.847656 -0.253906 24.671875 -2.296875 L 21.96875 -4.859375 L 18.484375 -2.296875 C 16.078125 -0.671875 13.460938 0.320312 10.640625 0.6875 C 8.273438 0.925781 6.023438 0.675781 3.890625 -0.0625 C 1.753906 -0.8125 0.078125 -2.097656 -1.140625 -3.921875 C -2.367188 -5.753906 -2.726562 -7.945312 -2.21875 -10.5 C -1.664062 -13.1875 -0.335938 -16.140625 1.765625 -19.359375 C 3.878906 -22.578125 6.117188 -25.320312 8.484375 -27.59375 C 10.285156 -29.300781 11.71875 -30.15625 12.78125 -30.15625 C 13.289062 -30.15625 13.988281 -29.691406 14.875 -28.765625 C 15.476562 -28.117188 15.765625 -27.585938 15.734375 -27.171875 C 15.710938 -26.753906 15.359375 -25.898438 14.671875 -24.609375 C 8.960938 -13.441406 7.476562 -7.367188 10.21875 -6.390625 L 10.765625 -6.328125 C 12.671875 -6.046875 15.289062 -7.617188 18.625 -11.046875 C 21.957031 -14.472656 24.273438 -17.945312 25.578125 -21.46875 C 26.546875 -23.832031 27.726562 -25.96875 29.125 -27.875 C 30.320312 -29.539062 31.195312 -30.476562 31.75 -30.6875 C 32.3125 -30.894531 33.359375 -30.601562 34.890625 -29.8125 C 36.179688 -29.113281 36.863281 -28.320312 36.9375 -27.4375 C 37.007812 -26.5625 36.535156 -25.15625 35.515625 -23.21875 C 35.003906 -22.425781 34.585938 -21.546875 34.265625 -20.578125 C 33.941406 -19.648438 33.6875 -18.8125 33.5 -18.0625 C 33.40625 -17.832031 33.285156 -17.40625 33.140625 -16.78125 C 33.003906 -16.15625 32.867188 -15.632812 32.734375 -15.21875 C 32.453125 -14.0625 32.195312 -13.113281 31.96875 -12.375 C 31.507812 -10.425781 31.28125 -8.582031 31.28125 -6.84375 C 31.28125 -5.101562 31.554688 -3.957031 32.109375 -3.40625 C 32.566406 -2.9375 33.5625 -2.660156 35.09375 -2.578125 C 35.320312 -2.660156 35.945312 -2.875 36.96875 -3.21875 C 37.988281 -3.570312 38.6875 -3.84375 39.0625 -4.03125 C 42.625 -5.882812 45.445312 -7.644531 47.53125 -9.3125 Z M 47.53125 -9.3125 "/></g></g></g><g fill="#0f9098" fill-opacity="1"><g transform="translate(583.009785, 81.005198)"><g><path d="M 35.234375 -8.40625 C 36.296875 -9.144531 37.195312 -9.382812 37.9375 -9.125 C 38.6875 -8.875 39.015625 -8.101562 38.921875 -6.8125 C 38.867188 -6.488281 38.757812 -6.148438 38.59375 -5.796875 C 38.4375 -5.453125 38.21875 -5.140625 37.9375 -4.859375 C 37.664062 -4.585938 37.398438 -4.332031 37.140625 -4.09375 C 36.890625 -3.863281 36.554688 -3.617188 36.140625 -3.359375 C 35.722656 -3.109375 35.375 -2.914062 35.09375 -2.78125 C 34.820312 -2.644531 34.460938 -2.457031 34.015625 -2.21875 C 33.578125 -1.988281 33.289062 -1.828125 33.15625 -1.734375 C 31.988281 -1.128906 30.78125 -0.644531 29.53125 -0.28125 C 29.488281 -0.226562 28.921875 0.128906 27.828125 0.796875 C 26.742188 1.472656 25.503906 2.210938 24.109375 3.015625 C 22.722656 3.828125 21.59375 4.375 20.71875 4.65625 C 19.507812 5.070312 18.253906 5.394531 16.953125 5.625 C 15.660156 5.863281 14.296875 6.015625 12.859375 6.078125 C 11.421875 6.148438 10.039062 6 8.71875 5.625 C 7.394531 5.257812 6.296875 4.707031 5.421875 3.96875 C 4.359375 2.988281 3.488281 1.65625 2.8125 -0.03125 C 2.144531 -1.726562 1.707031 -3.5625 1.5 -5.53125 C 1.289062 -7.5 1.1875 -9.335938 1.1875 -11.046875 C 1.1875 -12.765625 1.253906 -14.410156 1.390625 -15.984375 C 1.429688 -16.210938 1.695312 -18.191406 2.1875 -21.921875 C 2.675781 -25.648438 3.140625 -29.3125 3.578125 -32.90625 L 4.234375 -38.296875 C 3.679688 -38.617188 2.640625 -38.847656 1.109375 -38.984375 C 0.179688 -39.035156 -0.765625 -39.035156 -1.734375 -38.984375 C -4.003906 -38.984375 -5.601562 -39.054688 -6.53125 -39.203125 C -6.71875 -39.242188 -6.984375 -39.265625 -7.328125 -39.265625 C -7.679688 -39.265625 -8.03125 -39.265625 -8.375 -39.265625 C -8.71875 -39.265625 -9.0625 -39.265625 -9.40625 -39.265625 C -9.757812 -39.265625 -10.039062 -39.296875 -10.25 -39.359375 C -10.457031 -39.429688 -10.585938 -39.539062 -10.640625 -39.6875 C -10.722656 -40.425781 -10.421875 -40.957031 -9.734375 -41.28125 C -9.679688 -41.332031 -9.363281 -41.53125 -8.78125 -41.875 C -8.207031 -42.21875 -7.609375 -42.550781 -6.984375 -42.875 C -6.359375 -43.207031 -5.507812 -43.5 -4.4375 -43.75 C -3.375 -44 -2.289062 -44.101562 -1.1875 -44.0625 C 2.289062 -43.738281 4.457031 -43.632812 5.3125 -43.75 C 6.175781 -43.863281 7.023438 -44.363281 7.859375 -45.25 C 9.109375 -46.40625 10.773438 -49.4375 12.859375 -54.34375 C 12.953125 -54.53125 13.09375 -54.8125 13.28125 -55.1875 C 14.0625 -57.039062 14.707031 -58.5 15.21875 -59.5625 C 15.726562 -60.625 16.445312 -61.976562 17.375 -63.625 C 18.300781 -65.269531 19.316406 -66.648438 20.421875 -67.765625 C 21.535156 -68.878906 22.695312 -69.734375 23.90625 -70.328125 C 27.800781 -72.179688 29.75 -72.066406 29.75 -69.984375 C 29.75 -68.773438 28.84375 -66.066406 27.03125 -61.859375 C 26.519531 -60.703125 26.148438 -59.796875 25.921875 -59.140625 C 25.640625 -58.304688 25.40625 -57.3125 25.21875 -56.15625 C 25.039062 -55 24.601562 -53.84375 23.90625 -52.6875 C 22.789062 -50.738281 21.863281 -49.09375 21.125 -47.75 C 20.25 -46.175781 19.925781 -45.25 20.15625 -44.96875 C 20.382812 -44.59375 22.722656 -44.175781 27.171875 -43.71875 C 30.273438 -43.394531 32.160156 -43.113281 32.828125 -42.875 C 33.503906 -42.644531 33.796875 -42.207031 33.703125 -41.5625 C 33.609375 -40.675781 33.097656 -40.304688 32.171875 -40.453125 C 31.804688 -40.492188 31.066406 -40.515625 29.953125 -40.515625 C 28.835938 -40.472656 27.585938 -40.40625 26.203125 -40.3125 C 24.804688 -40.21875 23.367188 -40.078125 21.890625 -39.890625 C 20.453125 -39.703125 19.25 -39.5625 18.28125 -39.46875 C 17.769531 -39.382812 17.097656 -37.90625 16.265625 -35.03125 C 15.429688 -32.15625 14.515625 -28.664062 13.515625 -24.5625 C 12.523438 -20.46875 11.796875 -17.722656 11.328125 -16.328125 C 8.960938 -9.242188 9.265625 -4.378906 12.234375 -1.734375 C 13.578125 -0.535156 14.828125 0.0390625 15.984375 0 C 16.679688 0 17.445312 -0.253906 18.28125 -0.765625 C 18.414062 -0.953125 18.890625 -1.226562 19.703125 -1.59375 C 20.515625 -1.96875 21.347656 -2.304688 22.203125 -2.609375 C 23.054688 -2.910156 23.9375 -3.222656 24.84375 -3.546875 C 25.75 -3.867188 26.222656 -4.03125 26.265625 -4.03125 C 29.972656 -5.507812 32.960938 -6.96875 35.234375 -8.40625 Z M 35.234375 -8.40625 "/></g></g></g><g fill="#0f9098" fill-opacity="1"><g transform="translate(617.301415, 81.005198)"><g><path d="M 44.546875 -10.640625 C 45.566406 -11.515625 46.457031 -11.867188 47.21875 -11.703125 C 47.988281 -11.546875 48.375 -10.816406 48.375 -9.515625 C 48.375 -9.148438 48.316406 -8.789062 48.203125 -8.4375 C 48.085938 -8.09375 47.910156 -7.757812 47.671875 -7.4375 C 47.441406 -7.113281 47.195312 -6.820312 46.9375 -6.5625 C 46.6875 -6.3125 46.363281 -6.046875 45.96875 -5.765625 C 45.582031 -5.484375 45.269531 -5.25 45.03125 -5.0625 C 44.800781 -4.882812 44.476562 -4.65625 44.0625 -4.375 C 43.644531 -4.101562 43.367188 -3.921875 43.234375 -3.828125 C 43.179688 -3.828125 43.109375 -3.800781 43.015625 -3.75 C 42.921875 -3.707031 42.875 -3.660156 42.875 -3.609375 C 42.738281 -3.515625 42.554688 -3.382812 42.328125 -3.21875 C 42.097656 -3.0625 41.9375 -2.960938 41.84375 -2.921875 C 40.257812 -1.804688 38.84375 -1.039062 37.59375 -0.625 C 36.34375 -0.300781 34.789062 -0.046875 32.9375 0.140625 C 28.21875 0.648438 24.695312 -0.4375 22.375 -3.125 C 20.0625 -5.8125 18.414062 -10.722656 17.4375 -17.859375 C 17.164062 -20.128906 16.867188 -21.265625 16.546875 -21.265625 C 16.265625 -21.265625 14.617188 -19.96875 11.609375 -17.375 C 9.890625 -15.800781 8.660156 -14.550781 7.921875 -13.625 C 7.546875 -13.25 7.21875 -12.757812 6.9375 -12.15625 C 6.664062 -11.5625 6.390625 -10.84375 6.109375 -10 C 5.835938 -9.164062 5.628906 -8.613281 5.484375 -8.34375 C 5.347656 -8.019531 5.023438 -7.253906 4.515625 -6.046875 L 3.46875 -3.46875 C 3.289062 -3.050781 3.175781 -2.367188 3.125 -1.421875 C 3.082031 -0.472656 2.910156 0.273438 2.609375 0.828125 C 2.304688 1.390625 1.738281 1.738281 0.90625 1.875 C -0.71875 2.101562 -2.109375 1.382812 -3.265625 -0.28125 C -4.003906 -1.300781 -4.394531 -2.066406 -4.4375 -2.578125 C -4.488281 -3.085938 -4.238281 -4.035156 -3.6875 -5.421875 C -3.539062 -5.703125 -3.425781 -5.976562 -3.34375 -6.25 C -3.25 -6.488281 -3.097656 -6.921875 -2.890625 -7.546875 C -2.679688 -8.171875 -2.539062 -8.585938 -2.46875 -8.796875 C -2.394531 -9.003906 -2.265625 -9.375 -2.078125 -9.90625 C -1.898438 -10.4375 -1.75 -10.835938 -1.625 -11.109375 C -1.507812 -11.390625 -1.359375 -11.757812 -1.171875 -12.21875 C -0.992188 -12.6875 -0.820312 -13.082031 -0.65625 -13.40625 C -0.5 -13.738281 -0.316406 -14.113281 -0.109375 -14.53125 C 0.0976562 -14.945312 0.320312 -15.363281 0.5625 -15.78125 C 1.4375 -17.351562 2.09375 -19.769531 2.53125 -23.03125 C 2.976562 -26.300781 3.269531 -28.171875 3.40625 -28.640625 C 4.195312 -31.921875 5.75 -36.625 8.0625 -42.75 C 8.476562 -43.90625 8.960938 -45.648438 9.515625 -47.984375 C 10.078125 -50.328125 10.632812 -52.503906 11.1875 -54.515625 C 11.75 -56.535156 12.445312 -58.609375 13.28125 -60.734375 C 14.113281 -62.867188 15.234375 -64.675781 16.640625 -66.15625 C 18.054688 -67.644531 19.691406 -68.617188 21.546875 -69.078125 C 23.117188 -69.453125 24.398438 -69.375 25.390625 -68.84375 C 26.390625 -68.3125 27.078125 -67.507812 27.453125 -66.4375 C 27.828125 -65.375 28.023438 -64.113281 28.046875 -62.65625 C 28.066406 -61.195312 27.992188 -59.882812 27.828125 -58.71875 C 27.671875 -57.5625 27.453125 -56.453125 27.171875 -55.390625 C 26.660156 -53.671875 25.847656 -51.679688 24.734375 -49.421875 C 23.628906 -47.191406 22.867188 -45.59375 22.453125 -44.625 C 21.796875 -42.8125 20.890625 -40.976562 19.734375 -39.125 C 19.179688 -38.34375 18.359375 -37.035156 17.265625 -35.203125 C 16.179688 -33.367188 15.289062 -32.035156 14.59375 -31.203125 C 13.625 -29.910156 12.554688 -28.640625 11.390625 -27.390625 C 11.253906 -27.242188 10.976562 -26.972656 10.5625 -26.578125 C 10.144531 -26.191406 9.785156 -25.820312 9.484375 -25.46875 C 9.179688 -25.125 8.984375 -24.789062 8.890625 -24.46875 C 8.847656 -24.320312 8.882812 -24.15625 9 -23.96875 C 9.113281 -23.789062 9.238281 -23.722656 9.375 -23.765625 C 9.46875 -23.765625 9.585938 -23.8125 9.734375 -23.90625 C 10.097656 -24.1875 10.601562 -24.648438 11.25 -25.296875 C 11.90625 -25.941406 12.519531 -26.453125 13.09375 -26.828125 C 13.675781 -27.203125 14.289062 -27.429688 14.9375 -27.515625 C 15.3125 -27.566406 15.679688 -27.613281 16.046875 -27.65625 C 18.046875 -27.894531 19.65625 -27.710938 20.875 -27.109375 C 22.101562 -26.503906 23.140625 -25.414062 23.984375 -23.84375 C 24.722656 -22.21875 25.09375 -20.363281 25.09375 -18.28125 C 25.09375 -16.425781 25.394531 -14.25 26 -11.75 C 26.550781 -9.25 27.175781 -7.367188 27.875 -6.109375 C 28.289062 -5.367188 28.753906 -4.929688 29.265625 -4.796875 C 29.773438 -4.660156 30.816406 -4.679688 32.390625 -4.859375 C 34.285156 -5.097656 35.835938 -5.445312 37.046875 -5.90625 C 40.191406 -7.570312 42.691406 -9.148438 44.546875 -10.640625 Z M 17.578125 -53.09375 C 17.484375 -52.90625 17.34375 -52.640625 17.15625 -52.296875 C 16.976562 -51.953125 16.816406 -51.628906 16.671875 -51.328125 C 16.535156 -51.023438 16.398438 -50.734375 16.265625 -50.453125 C 15.242188 -48.328125 14.429688 -46.101562 13.828125 -43.78125 C 13.597656 -42.90625 13.320312 -42.015625 13 -41.109375 C 12.675781 -40.203125 12.269531 -39.125 11.78125 -37.875 C 11.289062 -36.625 10.953125 -35.769531 10.765625 -35.3125 C 10.492188 -34.5625 10.539062 -34.070312 10.90625 -33.84375 C 11.09375 -33.707031 11.347656 -33.800781 11.671875 -34.125 C 12.410156 -34.863281 13.035156 -35.6875 13.546875 -36.59375 C 14.054688 -37.5 14.554688 -38.550781 15.046875 -39.75 C 15.535156 -40.957031 15.941406 -41.882812 16.265625 -42.53125 C 17.609375 -44.988281 18.742188 -48.070312 19.671875 -51.78125 C 19.765625 -52.007812 19.945312 -52.4375 20.21875 -53.0625 C 20.5 -53.6875 20.734375 -54.242188 20.921875 -54.734375 C 21.109375 -55.222656 21.234375 -55.765625 21.296875 -56.359375 C 21.367188 -56.960938 21.242188 -57.359375 20.921875 -57.546875 C 20.597656 -57.828125 20.203125 -57.6875 19.734375 -57.125 C 19.367188 -56.757812 18.882812 -55.90625 18.28125 -54.5625 C 18.09375 -54.09375 17.859375 -53.601562 17.578125 -53.09375 Z M 9.453125 -23.765625 Z M 9.453125 -23.765625 "/></g></g></g><g fill="#0f9098" fill-opacity="1"><g transform="translate(662.154976, 81.005198)"><g><path d="M 32.671875 -7.78125 C 33.679688 -8.613281 34.566406 -8.945312 35.328125 -8.78125 C 36.097656 -8.625 36.484375 -7.898438 36.484375 -6.609375 C 36.535156 -6.191406 36.457031 -5.769531 36.25 -5.34375 C 36.039062 -4.925781 35.816406 -4.566406 35.578125 -4.265625 C 35.347656 -3.972656 35.015625 -3.640625 34.578125 -3.265625 C 34.140625 -2.890625 33.78125 -2.609375 33.5 -2.421875 C 33.21875 -2.242188 32.8125 -1.976562 32.28125 -1.625 C 31.75 -1.28125 31.4375 -1.0625 31.34375 -0.96875 C 30.226562 -0.226562 29.09375 0.394531 27.9375 0.90625 C 27.84375 0.945312 27.710938 1.003906 27.546875 1.078125 C 27.390625 1.148438 27.21875 1.21875 27.03125 1.28125 C 26.84375 1.351562 26.65625 1.421875 26.46875 1.484375 C 26.289062 1.554688 26.144531 1.617188 26.03125 1.671875 L 25.859375 1.734375 C 23.023438 2.890625 19.988281 3.5625 16.75 3.75 C 13.414062 3.9375 10.984375 3.632812 9.453125 2.84375 C 9.265625 2.75 8.519531 2.425781 7.21875 1.875 C 5.925781 1.320312 5.003906 0.835938 4.453125 0.421875 C 3.378906 -0.273438 2.359375 -1.78125 1.390625 -4.09375 C -0.421875 -8.269531 -1.328125 -11.957031 -1.328125 -15.15625 C -1.328125 -17.09375 -0.976562 -19.640625 -0.28125 -22.796875 C -0.226562 -22.984375 -0.144531 -23.375 -0.03125 -23.96875 C 0.0820312 -24.570312 0.1875 -25.023438 0.28125 -25.328125 C 0.375 -25.628906 0.488281 -26.046875 0.625 -26.578125 C 0.757812 -27.117188 0.894531 -27.570312 1.03125 -27.9375 C 1.175781 -28.3125 1.34375 -28.691406 1.53125 -29.078125 C 1.71875 -29.472656 1.898438 -29.832031 2.078125 -30.15625 C 3.054688 -31.5 3.847656 -32.472656 4.453125 -33.078125 C 6.953125 -35.671875 10.125 -36.832031 13.96875 -36.5625 C 17.957031 -36.238281 20.113281 -34.914062 20.4375 -32.59375 C 20.707031 -30.789062 20.597656 -28.925781 20.109375 -27 C 19.628906 -25.070312 19.03125 -23.484375 18.3125 -22.234375 C 17.59375 -20.984375 16.59375 -19.363281 15.3125 -17.375 C 14.039062 -15.382812 13.128906 -13.851562 12.578125 -12.78125 C 10.535156 -8.9375 9.515625 -6.644531 9.515625 -5.90625 C 9.515625 -5.300781 10.097656 -4.445312 11.265625 -3.34375 C 12.003906 -2.644531 12.660156 -2.222656 13.234375 -2.078125 C 13.816406 -1.941406 14.875 -2.015625 16.40625 -2.296875 C 18.8125 -2.617188 21.425781 -3.195312 24.25 -4.03125 C 25.320312 -4.40625 26.875 -5.03125 28.90625 -5.90625 C 30.945312 -6.789062 32.203125 -7.414062 32.671875 -7.78125 Z M 5.703125 -12.71875 C 6.117188 -12.71875 7.273438 -14.523438 9.171875 -18.140625 C 11.023438 -21.753906 11.953125 -23.929688 11.953125 -24.671875 C 11.953125 -25.554688 11.476562 -26.125 10.53125 -26.375 C 9.582031 -26.625 8.828125 -26.40625 8.265625 -25.71875 C 7.804688 -25.15625 7.34375 -24.320312 6.875 -23.21875 C 6.414062 -22.101562 6.046875 -20.96875 5.765625 -19.8125 C 5.535156 -18.644531 5.328125 -17.53125 5.140625 -16.46875 C 4.953125 -15.40625 4.90625 -14.515625 5 -13.796875 C 5.09375 -13.078125 5.328125 -12.71875 5.703125 -12.71875 Z M 5.703125 -12.71875 "/></g></g></g><g fill="#0f9098" fill-opacity="1"><g transform="translate(693.458662, 81.005198)"><g><path d="M 44.484375 -11.265625 C 45.453125 -12.140625 46.316406 -12.492188 47.078125 -12.328125 C 47.847656 -12.171875 48.253906 -11.441406 48.296875 -10.140625 C 48.296875 -9.773438 48.238281 -9.414062 48.125 -9.0625 C 48.007812 -8.71875 47.820312 -8.394531 47.5625 -8.09375 C 47.3125 -7.789062 47.054688 -7.5 46.796875 -7.21875 C 46.546875 -6.945312 46.234375 -6.671875 45.859375 -6.390625 C 45.492188 -6.117188 45.179688 -5.890625 44.921875 -5.703125 C 44.671875 -5.515625 44.335938 -5.289062 43.921875 -5.03125 C 43.503906 -4.78125 43.226562 -4.585938 43.09375 -4.453125 C 41.976562 -3.710938 40.84375 -3.109375 39.6875 -2.640625 C 39.59375 -2.597656 39.453125 -2.53125 39.265625 -2.4375 C 39.171875 -2.195312 38.988281 -2.007812 38.71875 -1.875 C 38.4375 -1.738281 38.015625 -1.597656 37.453125 -1.453125 C 36.390625 -0.859375 34.816406 -0.441406 32.734375 -0.203125 C 30.648438 0.0234375 28.75 0.0820312 27.03125 -0.03125 C 25.320312 -0.144531 24.210938 -0.34375 23.703125 -0.625 C 23.285156 -0.90625 22.820312 -1.484375 22.3125 -2.359375 C 21.800781 -3.242188 21.359375 -4.125 20.984375 -5 C 20.617188 -5.882812 20.390625 -6.554688 20.296875 -7.015625 C 19.972656 -8.359375 19.859375 -9.796875 19.953125 -11.328125 C 20.085938 -12.898438 20.34375 -15.359375 20.71875 -18.703125 L 20.71875 -19.671875 C 20.71875 -19.898438 20.632812 -20.070312 20.46875 -20.1875 C 20.300781 -20.300781 20.082031 -20.382812 19.8125 -20.4375 C 19.53125 -20.4375 19.160156 -20.4375 18.703125 -20.4375 C 18.140625 -20.4375 17.507812 -20.523438 16.8125 -20.703125 C 16.125 -20.890625 15.441406 -21.0625 14.765625 -21.21875 C 14.097656 -21.382812 13.507812 -21.46875 13 -21.46875 C 13.039062 -21.46875 12.875 -20.738281 12.5 -19.28125 C 12.132812 -17.820312 11.660156 -16.28125 11.078125 -14.65625 C 10.503906 -13.039062 9.984375 -12.09375 9.515625 -11.8125 C 7.847656 -10.84375 6.085938 -10.148438 4.234375 -9.734375 C 1.828125 -9.171875 2.914062 -14.425781 7.5 -25.5 C 7.59375 -25.78125 7.820312 -26.359375 8.1875 -27.234375 C 8.5625 -28.117188 8.816406 -28.734375 8.953125 -29.078125 C 9.097656 -29.429688 9.320312 -29.988281 9.625 -30.75 C 9.925781 -31.519531 10.144531 -32.144531 10.28125 -32.625 C 10.425781 -33.113281 10.578125 -33.703125 10.734375 -34.390625 C 10.898438 -35.085938 11.015625 -35.75 11.078125 -36.375 C 11.148438 -37.007812 11.1875 -37.648438 11.1875 -38.296875 C 11.1875 -39.035156 11.660156 -40.351562 12.609375 -42.25 C 13.554688 -44.15625 14.3125 -45.316406 14.875 -45.734375 C 15.613281 -46.148438 16.617188 -46.300781 17.890625 -46.1875 C 19.171875 -46.070312 20.019531 -45.78125 20.4375 -45.3125 C 20.988281 -44.613281 20.988281 -41.925781 20.4375 -37.25 C 20.019531 -34.195312 19.832031 -32.226562 19.875 -31.34375 C 19.925781 -30.414062 20.179688 -29.675781 20.640625 -29.125 C 21.191406 -28.65625 21.675781 -28.429688 22.09375 -28.453125 C 22.507812 -28.484375 23.300781 -28.84375 24.46875 -29.53125 C 26.175781 -30.507812 27.410156 -30.972656 28.171875 -30.921875 C 28.941406 -30.878906 29.648438 -30.347656 30.296875 -29.328125 C 30.804688 -28.585938 31.035156 -27.914062 30.984375 -27.3125 C 30.941406 -26.707031 30.597656 -25.550781 29.953125 -23.84375 C 29.023438 -21.382812 28.191406 -18.578125 27.453125 -15.421875 C 26.898438 -12.921875 26.726562 -11.066406 26.9375 -9.859375 C 27.144531 -8.660156 27.894531 -7.25 29.1875 -5.625 C 29.75 -4.84375 30.191406 -4.40625 30.515625 -4.3125 C 30.648438 -4.257812 30.890625 -4.289062 31.234375 -4.40625 C 31.585938 -4.53125 31.957031 -4.671875 32.34375 -4.828125 C 32.738281 -4.992188 33.007812 -5.097656 33.15625 -5.140625 C 34.59375 -5.515625 35.539062 -5.816406 36 -6.046875 C 39.570312 -7.898438 42.398438 -9.640625 44.484375 -11.265625 Z M 44.484375 -11.265625 "/></g></g></g><g fill="#0f9098" fill-opacity="1"><g transform="translate(736.714022, 81.005198)"><g><path d="M -2.84375 -9.59375 C -2.101562 -10.84375 -0.671875 -13.703125 1.453125 -18.171875 C 3.585938 -22.640625 5.421875 -25.78125 6.953125 -27.59375 C 7.179688 -27.914062 7.4375 -28.21875 7.71875 -28.5 C 8.269531 -29.101562 9.03125 -29.550781 10 -29.84375 C 10.976562 -30.144531 11.863281 -30.113281 12.65625 -29.75 C 12.925781 -29.5625 13.117188 -29.070312 13.234375 -28.28125 C 13.347656 -27.5 13.523438 -27.082031 13.765625 -27.03125 C 14.085938 -26.988281 14.875 -27.40625 16.125 -28.28125 C 18.257812 -29.769531 21.617188 -31 26.203125 -31.96875 C 28.054688 -32.4375 29.257812 -32.625 29.8125 -32.53125 C 30.375 -32.4375 31.070312 -32.019531 31.90625 -31.28125 C 32.96875 -30.207031 33.519531 -28.90625 33.5625 -27.375 C 33.613281 -25.851562 33.109375 -24.421875 32.046875 -23.078125 C 31.253906 -21.921875 30.234375 -19.625 28.984375 -16.1875 C 27.734375 -12.757812 27.109375 -10.398438 27.109375 -9.109375 C 27.109375 -8.179688 27.421875 -7.171875 28.046875 -6.078125 C 28.671875 -4.992188 29.429688 -4.09375 30.328125 -3.375 C 31.234375 -2.65625 32.054688 -2.296875 32.796875 -2.296875 C 33.910156 -2.296875 36.25 -3.222656 39.8125 -5.078125 C 43.382812 -6.929688 46.191406 -8.691406 48.234375 -10.359375 C 49.765625 -11.515625 50.851562 -12.054688 51.5 -11.984375 C 52.144531 -11.921875 52.46875 -11.238281 52.46875 -9.9375 C 52.46875 -9.382812 52.222656 -8.75 51.734375 -8.03125 C 51.253906 -7.3125 50.617188 -6.554688 49.828125 -5.765625 C 48.992188 -5.023438 48.019531 -4.269531 46.90625 -3.5 C 45.800781 -2.738281 44.664062 -2.128906 43.5 -1.671875 C 40.445312 -0.234375 38.25 0.804688 36.90625 1.453125 C 34.582031 2.523438 32.53125 2.828125 30.75 2.359375 C 28.96875 1.898438 26.875 0.460938 24.46875 -1.953125 C 22.519531 -3.890625 21.367188 -5.21875 21.015625 -5.9375 C 20.671875 -6.65625 20.5 -8.035156 20.5 -10.078125 C 20.5 -13.046875 21.03125 -16.128906 22.09375 -19.328125 C 23.019531 -22.515625 23.394531 -24.25 23.21875 -24.53125 C 22.9375 -24.8125 21.054688 -23.316406 17.578125 -20.046875 C 14.109375 -16.785156 10.703125 -13.332031 7.359375 -9.6875 C 4.023438 -6.050781 2.359375 -3.957031 2.359375 -3.40625 C 2.359375 -2.9375 2.066406 -2.425781 1.484375 -1.875 C 0.910156 -1.320312 0.207031 -0.867188 -0.625 -0.515625 C -1.457031 -0.171875 -2.195312 -0.0664062 -2.84375 -0.203125 C -3.914062 -0.347656 -4.660156 -1.179688 -5.078125 -2.703125 C -5.398438 -3.722656 -5.441406 -4.628906 -5.203125 -5.421875 C -4.972656 -6.210938 -4.1875 -7.601562 -2.84375 -9.59375 Z M -2.84375 -9.59375 "/></g></g></g></svg>